Bahiana.ufo
<glyph name="exclam" format="1">
  <advance width="206"/>
  <unicode hex="0021"/>
  <outline>
    <contour>
      <point x="154" y="710" type="line"/>
      <point x="50" y="710" type="line"/>
      <point x="73" y="190" type="line"/>
      <point x="116" y="184" type="line"/>
    </contour>
    <contour>
      <point x="146" y="96" type="line"/>
      <point x="50" y="92" type="line"/>
      <point x="50" y="0" type="line"/>
      <point x="142" y="0" type="line"/>
    </contour>
  </outline>
</glyph>
<glyph name="quotesingle" format="1">
  <advance width="177"/>
  <unicode hex="0027"/>
  <outline>
    <contour>
      <point x="127" y="710" type="line"/>
      <point x="50" y="710" type="line"/>
      <point x="69" y="492" type="line"/>
      <point x="120" y="502" type="line"/>
    </contour>
  </outline>
</glyph>
<glyph name="parenright" format="1">
  <advance width="248"/>
  <unicode hex="0029"/>
  <outline>
    <contour>
      <point x="118" y="-76" type="line"/>
      <point x="208" y="282" type="line"/>
      <point x="202" y="464" type="line"/>
      <point x="118" y="762" type="line"/>
      <point x="53" y="735" type="line"/>
      <point x="143" y="475" type="line"/>
      <point x="143" y="245" type="line"/>
      <point x="50" y="-56" type="line"/>
    </contour>
  </outline>
</glyph>
<glyph name="hyphen" format="1">
  <advance width="339"/>
  <unicode hex="002D"/>
  <outline>
    <contour>
      <point x="328" y="308" type="line"/>
      <point x="328" y="357" type="line"/>
      <point x="10" y="366" type="line"/>
      <point x="13" y="308" type="line"/>
    </contour>
  </outline>
</glyph>
<glyph name="three" format="1">
  <advance width="339"/>
  <unicode hex="0033"/>
  <outline>
    <contour>
      <point x="54" y="0" type="line"/>
      <point x="229" y="0" type="line" smooth="yes"/>
      <point x="229" y="0"/>
      <point x="284" y="58"/>
      <point x="284" y="58" type="curve" smooth="yes"/>
      <point x="284" y="325" type="line"/>
      <point x="284" y="370"/>
      <point x="220" y="382"/>
      <point x="220" y="382" type="curve"/>
      <point x="220" y="382"/>
      <point x="281" y="398"/>
      <point x="281" y="441" type="curve"/>
      <point x="281" y="655" type="line" smooth="yes"/>
      <point x="281" y="655"/>
      <point x="213" y="710"/>
      <point x="213" y="710" type="curve" smooth="yes"/>
      <point x="43" y="710" type="line"/>
      <point x="43" y="559" type="line"/>
      <point x="91" y="559" type="line"/>
      <point x="106" y="648" type="line"/>
      <point x="208" y="648" type="line"/>
      <point x="201" y="426" type="line"/>
      <point x="188" y="412" type="line"/>
      <point x="84" y="412" type="line"/>
      <point x="84" y="342" type="line"/>
      <point x="188" y="342" type="line"/>
      <point x="201" y="326" type="line"/>
      <point x="208" y="69" type="line"/>
      <point x="121" y="69" type="line"/>
      <point x="98" y="160" type="line"/>
      <point x="54" y="160" type="line"/>
    </contour>
  </outline>
</glyph>
<glyph name="four" format="1">
  <advance width="339"/>
  <unicode hex="0034"/>
  <outline>
    <contour>
      <point x="159" y="710" type="line"/>
      <point x="31" y="211" type="line"/>
      <point x="50" y="151" type="line"/>
      <point x="196" y="151" type="line"/>
      <point x="197" y="0" type="line"/>
      <point x="272" y="0" type="line"/>
      <point x="271" y="151" type="line"/>
      <point x="329" y="151" type="line"/>
      <point x="329" y="208" type="line"/>
      <point x="271" y="224" type="line"/>
      <point x="269" y="711" type="line"/>
    </contour>
    <contour>
      <point x="107" y="224" type="line"/>
      <point x="210" y="664" type="line"/>
      <point x="217" y="664" type="line"/>
      <point x="193" y="224" type="line"/>
    </contour>
  </outline>
</glyph>
<glyph name="five" format="1">
  <advance width="339"/>
  <unicode hex="0035"/>
  <outline>
    <contour>
      <point x="204" y="335" type="line"/>
      <point x="216" y="80" type="line"/>
      <point x="129" y="65" type="line"/>
      <point x="109" y="162" type="line"/>
      <point x="63" y="162" type="line"/>
      <point x="63" y="0" type="line"/>
      <point x="230" y="0" type="line" smooth="yes"/>
      <point x="230" y="0"/>
      <point x="283" y="47"/>
      <point x="283" y="47" type="curve" smooth="yes"/>
      <point x="283" y="356" type="line" smooth="yes"/>
      <point x="283" y="356"/>
      <point x="221" y="409"/>
      <point x="221" y="409" type="curve" smooth="yes"/>
      <point x="155" y="409" type="line"/>
      <point x="137" y="642" type="line"/>
      <point x="290" y="642" type="line"/>
      <point x="290" y="710" type="line"/>
      <point x="75" y="710" type="line"/>
      <point x="75" y="710"/>
      <point x="75" y="347"/>
      <point x="75" y="347" type="curve"/>
    </contour>
  </outline>
</glyph>
<glyph name="six" format="1">
  <advance width="339"/>
  <unicode hex="0036"/>
  <outline>
    <contour>
      <point x="105" y="0" type="curve"/>
      <point x="239" y="0" type="line" smooth="yes"/>
      <point x="239" y="0"/>
      <point x="291" y="47"/>
      <point x="291" y="47" type="curve" smooth="yes"/>
      <point x="291" y="353" type="line" smooth="yes"/>
      <point x="291" y="353"/>
      <point x="229" y="406"/>
      <point x="229" y="406" type="curve" smooth="yes"/>
      <point x="124" y="407" type="line"/>
      <point x="117" y="642" type="line"/>
      <point x="208" y="642" type="line"/>
      <point x="230" y="548" type="line"/>
      <point x="276" y="548" type="line"/>
      <point x="276" y="710" type="line"/>
      <point x="103" y="710" type="line" smooth="yes"/>
      <point x="103" y="710"/>
      <point x="49" y="653"/>
      <point x="49" y="653" type="curve" smooth="yes"/>
      <point x="50" y="47" type="line" smooth="yes"/>
      <point x="50" y="47"/>
      <point x="105" y="0"/>
    </contour>
    <contour>
      <point x="212" y="69" type="line"/>
      <point x="127" y="74" type="line"/>
      <point x="119" y="82" type="line"/>
      <point x="119" y="328" type="line"/>
      <point x="212" y="328" type="line"/>
      <point x="220" y="321" type="line"/>
      <point x="220" y="79" type="line"/>
    </contour>
  </outline>
</glyph>
<glyph name="seven" format="1">
  <advance width="339"/>
  <unicode hex="0037"/>
  <outline>
    <contour>
      <point x="83" y="0" type="line"/>
      <point x="162" y="0" type="line"/>
      <point x="290" y="665" type="line"/>
      <point x="290" y="710" type="line"/>
      <point x="51" y="710" type="line"/>
      <point x="51" y="550" type="line"/>
      <point x="100" y="550" type="line"/>
      <point x="116" y="643" type="line"/>
      <point x="217" y="643" type="line"/>
    </contour>
  </outline>
</glyph>
<glyph name="eight" format="1">
  <advance width="339"/>
  <unicode hex="0038"/>
  <outline>
    <contour>
      <point x="237" y="710" type="line"/>
      <point x="237" y="710"/>
      <point x="285" y="655"/>
      <point x="285" y="655" type="curve" smooth="yes"/>
      <point x="285" y="438" type="line"/>
      <point x="285" y="402"/>
      <point x="237" y="375"/>
      <point x="237" y="375" type="curve"/>
      <point x="237" y="375"/>
      <point x="295" y="358"/>
      <point x="295" y="310" type="curve"/>
      <point x="294" y="53" type="line"/>
      <point x="294" y="53"/>
      <point x="241" y="0"/>
      <point x="241" y="0" type="curve" smooth="yes"/>
      <point x="109" y="0" type="line" smooth="yes"/>
      <point x="109" y="0"/>
      <point x="49" y="53"/>
      <point x="49" y="53" type="curve"/>
      <point x="48" y="307" type="line"/>
      <point x="48" y="357"/>
      <point x="111" y="375"/>
      <point x="111" y="375" type="curve"/>
      <point x="111" y="375"/>
      <point x="57" y="398"/>
      <point x="57" y="437" type="curve"/>
      <point x="57" y="655" type="line" smooth="yes"/>
      <point x="57" y="655"/>
      <point x="112" y="710"/>
      <point x="112" y="710" type="curve" smooth="yes"/>
    </contour>
    <contour>
      <point x="223" y="306" type="line"/>
      <point x="200" y="327" type="line"/>
      <point x="139" y="327" type="line"/>
      <point x="117" y="306" type="line"/>
      <point x="120" y="86" type="line"/>
      <point x="134" y="74" type="line"/>
      <point x="208" y="74" type="line"/>
      <point x="220" y="84" type="line"/>
    </contour>
    <contour>
      <point x="123" y="436" type="line"/>
      <point x="145" y="420" type="line"/>
      <point x="197" y="420" type="line"/>
      <point x="217" y="436" type="line"/>
      <point x="212" y="634" type="line"/>
      <point x="200" y="646" type="line"/>
      <point x="140" y="646" type="line"/>
      <point x="128" y="634" type="line"/>
    </contour>
  </outline>
</glyph>
<glyph name="question" format="1">
  <advance width="334"/>
  <unicode hex="003F"/>
  <outline>
    <contour>
      <point x="101" y="359" type="line"/>
      <point x="101" y="163" type="line"/>
      <point x="146" y="155" type="line"/>
      <point x="160" y="319" type="line"/>
      <point x="257" y="464" type="line"/>
      <point x="270" y="710" type="line"/>
      <point x="137" y="710" type="line"/>
      <point x="51" y="690" type="line"/>
      <point x="51" y="549" type="line"/>
      <point x="100" y="542" type="line"/>
      <point x="103" y="622" type="line"/>
      <point x="121" y="646" type="line"/>
      <point x="195" y="646" type="line"/>
      <point x="183" y="492" type="line"/>
    </contour>
    <contour>
      <point x="174" y="96" type="line"/>
      <point x="78" y="92" type="line"/>
      <point x="78" y="0" type="line"/>
      <point x="170" y="0" type="line"/>
    </contour>
  </outline>
</glyph>
<glyph name="A" format="1">
  <advance width="286"/>
  <unicode hex="0041"/>
  <outline>
    <contour>
      <point x="18" y="0" type="line"/>
      <point x="65" y="0" type="line"/>
      <point x="111" y="278" type="line"/>
      <point x="162" y="278" type="line"/>
      <point x="188" y="0" type="line"/>
      <point x="246" y="0" type="line"/>
      <point x="246" y="710" type="line"/>
      <point x="63" y="710" type="line"/>
    </contour>
    <contour>
      <point x="134" y="325" type="line" smooth="yes"/>
      <point x="130" y="325"/>
      <point x="128" y="327"/>
      <point x="128" y="330" type="curve" smooth="yes"/>
      <point x="128" y="672" type="line" smooth="yes"/>
      <point x="128" y="676"/>
      <point x="130" y="678"/>
      <point x="134" y="678" type="curve" smooth="yes"/>
      <point x="177" y="678" type="line" smooth="yes"/>
      <point x="181" y="678"/>
      <point x="183" y="676"/>
      <point x="183" y="672" type="curve"/>
      <point x="183" y="331" type="line" smooth="yes"/>
      <point x="183" y="327"/>
      <point x="181" y="325"/>
      <point x="177" y="325" type="curve" smooth="yes"/>
    </contour>
    <contour>
      <point x="137" y="0" type="move" name="bottom"/>
    </contour>
    <contour>
      <point x="246" y="0" type="move" name="ogonek"/>
    </contour>
    <contour>
      <point x="150" y="710" type="move" name="top"/>
    </contour>
  </outline>
</glyph>
<glyph name="C" format="1">
  <advance width="316"/>
  <unicode hex="0043"/>
  <outline>
    <contour>
      <point x="141" y="0" type="curve"/>
      <point x="284" y="0" type="line"/>
      <point x="284" y="167" type="line"/>
      <point x="222" y="167" type="line"/>
      <point x="202" y="89" type="line"/>
      <point x="201" y="85"/>
      <point x="197" y="83"/>
      <point x="190" y="83" type="curve"/>
      <point x="131" y="83" type="line"/>
      <point x="127" y="83"/>
      <point x="125" y="85"/>
      <point x="125" y="89" type="curve"/>
      <point x="104" y="588" type="line" smooth="yes"/>
      <point x="103" y="621"/>
      <point x="106" y="651"/>
      <point x="138" y="651" type="curve"/>
      <point x="180" y="651" type="line"/>
      <point x="188" y="651"/>
      <point x="191" y="648"/>
      <point x="192" y="642" type="curve"/>
      <point x="202" y="529" type="line"/>
      <point x="268" y="529" type="line"/>
      <point x="284" y="654" type="line"/>
      <point x="284" y="710" type="line"/>
      <point x="120" y="710" type="line"/>
      <point x="68" y="710"/>
      <point x="40" y="685"/>
      <point x="40" y="654" type="curve"/>
      <point x="40" y="62" type="line"/>
      <point x="40" y="29"/>
      <point x="68" y="0"/>
    </contour>
    <contour>
      <point x="175" y="0" type="move" name="bottom"/>
    </contour>
    <contour>
      <point x="175" y="710" type="move" name="top"/>
    </contour>
  </outline>
</glyph>
<glyph name="F" format="1">
  <advance width="266"/>
  <unicode hex="0046"/>
  <outline>
    <contour>
      <point x="36" y="0" type="line"/>
      <point x="124" y="0" type="line"/>
      <point x="124" y="355" type="line"/>
      <point x="228" y="373" type="line"/>
      <point x="228" y="423" type="line"/>
      <point x="119" y="423" type="line"/>
      <point x="119" y="622" type="line"/>
      <point x="242" y="622" type="line"/>
      <point x="242" y="710" type="line"/>
      <point x="59" y="710" type="line"/>
    </contour>
  </outline>
</glyph>
<glyph name="G" format="1">
  <advance width="346"/>
  <unicode hex="0047"/>
  <outline>
    <contour>
      <point x="92" y="20" type="curve"/>
      <point x="302" y="20" type="line"/>
      <point x="302" y="369" type="line"/>
      <point x="189" y="356" type="line"/>
      <point x="189" y="300" type="line"/>
      <point x="249" y="298" type="line"/>
      <point x="239" y="104" type="line" smooth="yes"/>
      <point x="239" y="96"/>
      <point x="227" y="92"/>
      <point x="219" y="92" type="curve" smooth="yes"/>
      <point x="146" y="92" type="line" smooth="yes"/>
      <point x="137" y="92"/>
      <point x="125" y="101"/>
      <point x="125" y="110" type="curve" smooth="yes"/>
      <point x="107" y="606" type="line"/>
      <point x="108" y="634"/>
      <point x="120" y="651"/>
      <point x="149" y="651" type="curve" smooth="yes"/>
      <point x="216" y="651" type="line"/>
      <point x="246" y="561" type="line"/>
      <point x="289" y="561" type="line"/>
      <point x="289" y="710" type="line"/>
      <point x="76" y="710" type="line"/>
      <point x="40" y="656" type="line"/>
      <point x="40" y="97" type="line" smooth="yes"/>
      <point x="40" y="45"/>
      <point x="65" y="20"/>
    </contour>
    <contour>
      <point x="181" y="710" type="move" name="top"/>
    </contour>
    <contour>
      <point x="174" y="0" type="move" name="bottom"/>
    </contour>
  </outline>
</glyph>
<glyph name="H" format="1">
  <advance width="310"/>
  <unicode hex="0048"/>
  <outline>
    <contour>
      <point x="112" y="317" type="line"/>
      <point x="192" y="326" type="line"/>
      <point x="213" y="-20" type="line"/>
      <point x="278" y="-20" type="line"/>
      <point x="257" y="624" type="line"/>
      <point x="272" y="648" type="line"/>
      <point x="272" y="690" type="line"/>
      <point x="185" y="690" type="line"/>
      <point x="185" y="400" type="line"/>
      <point x="111" y="385" type="line"/>
      <point x="111" y="710" type="line"/>
      <point x="30" y="710" type="line"/>
      <point x="53" y="0" type="line"/>
      <point x="123" y="0" type="line"/>
    </contour>
    <contour>
      <point x="154" y="710" type="move" name="top"/>
    </contour>
    <contour>
      <point x="147" y="0" type="move" name="bottom"/>
    </contour>
  </outline>
</glyph>
<glyph name="I" format="1">
  <advance width="163"/>
  <unicode hex="0049"/>
  <outline>
    <contour>
      <point x="44" y="0" type="line"/>
      <point x="118" y="0" type="line"/>
      <point x="127" y="710" type="line"/>
      <point x="26" y="710" type="line"/>
      <point x="26" y="664" type="line"/>
      <point x="44" y="616" type="line"/>
    </contour>
    <contour>
      <point x="79" y="710" type="move" name="top"/>
    </contour>
    <contour>
      <point x="74" y="0" type="move" name="bottom"/>
    </contour>
  </outline>
</glyph>
<glyph name="J" format="1">
  <advance width="286"/>
  <unicode hex="004A"/>
  <outline>
    <contour>
      <point x="56" y="0" type="line"/>
      <point x="237" y="0" type="line"/>
      <point x="246" y="710" type="line"/>
      <point x="150" y="710" type="line"/>
      <point x="150" y="664" type="line"/>
      <point x="168" y="616" type="line"/>
      <point x="168" y="49" type="line"/>
      <point x="104" y="54" type="line"/>
      <point x="99" y="192" type="line"/>
      <point x="20" y="172" type="line"/>
    </contour>
    <contour>
      <point x="199" y="710" type="move" name="top"/>
    </contour>
    <contour>
      <point x="192" y="0" type="move" name="bottom"/>
    </contour>
  </outline>
</glyph>
<glyph name="K" format="1">
  <advance width="298"/>
  <unicode hex="004B"/>
  <outline>
    <contour>
      <point x="189" y="-20" type="line"/>
      <point x="269" y="-20" type="line"/>
      <point x="258" y="314" type="line"/>
      <point x="189" y="354" type="line"/>
      <point x="237" y="386" type="line"/>
      <point x="279" y="710" type="line"/>
      <point x="193" y="710" type="line"/>
      <point x="183" y="411" type="line"/>
      <point x="138" y="375" type="line"/>
      <point x="112" y="390" type="line"/>
      <point x="112" y="690" type="line"/>
      <point x="34" y="690" type="line"/>
      <point x="57" y="-20" type="line"/>
      <point x="124" y="-20" type="line"/>
      <point x="124" y="306" type="line"/>
      <point x="135" y="314" type="line"/>
      <point x="189" y="264" type="line"/>
    </contour>
    <contour>
      <point x="157" y="710" type="move" name="top"/>
    </contour>
    <contour>
      <point x="150" y="0" type="move" name="bottom"/>
    </contour>
  </outline>
</glyph>
<glyph name="N" format="1">
  <advance width="333"/>
  <unicode hex="004E"/>
  <outline>
    <contour>
      <point x="189" y="0" type="line"/>
      <point x="304" y="0" type="line"/>
      <point x="314" y="710" type="line"/>
      <point x="256" y="710" type="line"/>
      <point x="234" y="58" type="line"/>
      <point x="230" y="58" type="line"/>
      <point x="140" y="710" type="line"/>
      <point x="24" y="710" type="line"/>
      <point x="24" y="0" type="line"/>
      <point x="83" y="0" type="line"/>
      <point x="83" y="651" type="line"/>
      <point x="87" y="651" type="line"/>
    </contour>
    <contour>
      <point x="179" y="710" type="move" name="top"/>
    </contour>
    <contour>
      <point x="172" y="0" type="move" name="bottom"/>
    </contour>
  </outline>
</glyph>
<glyph name="S" format="1">
  <advance width="271"/>
  <unicode hex="0053"/>
  <outline>
    <contour>
      <point x="112" y="421" type="line"/>
      <point x="97" y="642" type="line"/>
      <point x="239" y="661" type="line"/>
      <point x="239" y="710" type="line"/>
      <point x="72" y="710" type="line" smooth="yes"/>
      <point x="51" y="710"/>
      <point x="32" y="684"/>
      <point x="32" y="663" type="curve" smooth="yes"/>
      <point x="32" y="366" type="line"/>
      <point x="147" y="336" type="line"/>
      <point x="171" y="68" type="line"/>
      <point x="32" y="68" type="line"/>
      <point x="32" y="0" type="line"/>
      <point x="175" y="0" type="line" smooth="yes"/>
      <point x="204" y="0"/>
      <point x="239" y="32"/>
      <point x="239" y="60" type="curve" smooth="yes"/>
      <point x="239" y="388" type="line"/>
    </contour>
    <contour>
      <point x="142" y="710" type="move" name="top"/>
    </contour>
    <contour>
      <point x="146" y="0" type="move" name="bottom"/>
    </contour>
  </outline>
</glyph>
<glyph name="T" format="1">
  <advance width="265"/>
  <unicode hex="0054"/>
  <outline>
    <contour>
      <point x="89" y="20" type="line"/>
      <point x="173" y="20" type="line"/>
      <point x="173" y="653" type="line"/>
      <point x="245" y="653" type="line"/>
      <point x="245" y="710" type="line"/>
      <point x="30" y="710" type="line"/>
      <point x="20" y="672" type="line"/>
      <point x="89" y="660" type="line"/>
    </contour>
    <contour>
      <point x="130" y="0" type="move" name="bottom"/>
    </contour>
    <contour>
      <point x="130" y="710" type="move" name="top"/>
    </contour>
  </outline>
</glyph>
<glyph name="W" format="1">
  <advance width="330"/>
  <unicode hex="0057"/>
  <outline>
    <contour>
      <point x="289" y="0" type="line"/>
      <point x="325" y="710" type="line"/>
      <point x="255" y="710" type="line"/>
      <point x="255" y="86" type="line"/>
      <point x="250" y="86" type="line"/>
      <point x="183" y="598" type="line"/>
      <point x="140" y="598" type="line"/>
      <point x="83" y="86" type="line"/>
      <point x="79" y="86" type="line"/>
      <point x="79" y="710" type="line"/>
      <point x="6" y="710" type="line"/>
      <point x="45" y="0" type="line"/>
      <point x="100" y="0" type="line"/>
      <point x="161" y="417" type="line"/>
      <point x="165" y="417" type="line"/>
      <point x="226" y="0" type="line"/>
    </contour>
    <contour>
      <point x="171" y="710" type="move" name="top"/>
    </contour>
    <contour>
      <point x="163" y="0" type="move" name="bottom"/>
    </contour>
  </outline>
</glyph>
<glyph name="X" format="1">
  <advance width="299"/>
  <unicode hex="0058"/>
  <outline>
    <contour>
      <point x="119" y="364" type="line"/>
      <point x="48" y="293" type="line"/>
      <point x="20" y="0" type="line"/>
      <point x="107" y="0" type="line"/>
      <point x="116" y="263" type="line"/>
      <point x="144" y="300" type="line"/>
      <point x="219" y="55" type="line"/>
      <point x="219" y="0" type="line"/>
      <point x="292" y="0" type="line"/>
      <point x="292" y="30" type="line"/>
      <point x="279" y="45" type="line"/>
      <point x="194" y="334" type="line"/>
      <point x="262" y="402" type="line"/>
      <point x="292" y="710" type="line"/>
      <point x="218" y="710" type="line"/>
      <point x="188" y="418" type="line"/>
      <point x="168" y="386" type="line"/>
      <point x="96" y="710" type="line"/>
      <point x="14" y="710" type="line"/>
    </contour>
  </outline>
</glyph>
<glyph name="bracketleft" format="1">
  <advance width="246"/>
  <unicode hex="005B"/>
  <outline>
    <contour>
      <point x="196" y="-81" type="line"/>
      <point x="196" y="-31" type="line"/>
      <point x="105" y="-34" type="line"/>
      <point x="105" y="717" type="line"/>
      <point x="196" y="721" type="line"/>
      <point x="196" y="762" type="line"/>
      <point x="40" y="762" type="line"/>
      <point x="40" y="-76" type="line"/>
    </contour>
  </outline>
</glyph>
<glyph name="underscore" format="1">
  <advance width="411"/>
  <unicode hex="005F"/>
  <outline>
    <contour>
      <point x="360" y="-102" type="line"/>
      <point x="363" y="-45" type="line"/>
      <point x="49" y="-40" type="line"/>
      <point x="49" y="-113" type="line"/>
    </contour>
  </outline>
</glyph>
<glyph name="grave" format="1">
  <advance width="170"/>
  <unicode hex="0060"/>
  <outline>
    <contour>
      <point x="116" y="640" type="line"/>
      <point x="150" y="664" type="line"/>
      <point x="66" y="772" type="line"/>
      <point x="20" y="724" type="line"/>
    </contour>
  </outline>
</glyph>
<glyph name="b" format="1">
  <advance width="286"/>
  <unicode hex="0062"/>
  <outline>
    <contour>
      <point x="107" y="0" type="curve" smooth="yes"/>
      <point x="190" y="0" type="line" smooth="yes"/>
      <point x="224" y="0"/>
      <point x="237" y="24"/>
      <point x="237" y="56" type="curve" smooth="yes"/>
      <point x="241" y="537" type="line" smooth="yes"/>
      <point x="241" y="564"/>
      <point x="212" y="585"/>
      <point x="175" y="585" type="curve" smooth="yes"/>
      <point x="148" y="585"/>
      <point x="126" y="583"/>
      <point x="109" y="581" type="curve"/>
      <point x="104" y="721" type="line"/>
      <point x="45" y="721" type="line"/>
      <point x="45" y="56" type="line" smooth="yes"/>
      <point x="45" y="17"/>
      <point x="51" y="0"/>
    </contour>
    <contour>
      <point x="121" y="51" type="line"/>
      <point x="112" y="57" type="line"/>
      <point x="106" y="521" type="line"/>
      <point x="164" y="527" type="line"/>
      <point x="173" y="518" type="line"/>
      <point x="179" y="60" type="line" smooth="yes"/>
      <point x="179" y="57"/>
      <point x="179" y="55"/>
      <point x="170" y="54" type="curve" smooth="yes"/>
    </contour>
  </outline>
</glyph>
<glyph name="c" format="1">
  <advance width="253"/>
  <unicode hex="0063"/>
  <outline>
    <contour>
      <point x="120" y="58"/>
      <point x="118" y="61"/>
      <point x="118" y="65" type="curve" smooth="yes"/>
      <point x="109" y="515" type="line" smooth="yes"/>
      <point x="109" y="521"/>
      <point x="109" y="524"/>
      <point x="118" y="524" type="curve" smooth="yes"/>
      <point x="160" y="524" type="line" smooth="yes"/>
      <point x="166" y="524"/>
      <point x="168" y="521"/>
      <point x="169" y="517" type="curve" smooth="yes"/>
      <point x="180" y="479" type="line"/>
      <point x="221" y="479" type="line"/>
      <point x="224" y="582" type="line"/>
      <point x="96" y="582" type="line"/>
      <point x="96" y="582"/>
      <point x="45" y="540"/>
      <point x="45" y="540" type="curve"/>
      <point x="45" y="36" type="line" smooth="yes"/>
      <point x="45" y="36"/>
      <point x="96" y="0"/>
      <point x="96" y="0" type="curve"/>
      <point x="227" y="0" type="line"/>
      <point x="227" y="46" type="line"/>
      <point x="126" y="57" type="line" smooth="yes"/>
    </contour>
    <contour>
      <point x="141" y="582" type="move" name="top"/>
    </contour>
    <contour>
      <point x="132" y="0" type="move" name="bottom"/>
    </contour>
  </outline>
</glyph>
<glyph name="h" format="1">
  <advance width="293"/>
  <unicode hex="0068"/>
  <outline>
    <contour>
      <point x="176" y="-3" type="line"/>
      <point x="176" y="-3"/>
      <point x="263" y="0"/>
      <point x="263" y="0" type="curve"/>
      <point x="263" y="37" type="line"/>
      <point x="248" y="54" type="line"/>
      <point x="248" y="554" type="line"/>
      <point x="208" y="582" type="line"/>
      <point x="111" y="582" type="line"/>
      <point x="113" y="722" type="line"/>
      <point x="70" y="722" type="line"/>
      <point x="45" y="706" type="line"/>
      <point x="51" y="0" type="line"/>
      <point x="117" y="0" type="line"/>
      <point x="110" y="521" type="line"/>
      <point x="178" y="522" type="line" smooth="yes"/>
      <point x="187" y="522"/>
      <point x="187" y="519"/>
      <point x="187" y="513" type="curve"/>
    </contour>
    <contour>
      <point x="151" y="0" type="move" name="bottom"/>
    </contour>
    <contour>
      <point x="79" y="710" type="move" name="top"/>
    </contour>
  </outline>
</glyph>
<glyph name="n" format="1">
  <advance width="279"/>
  <unicode hex="006E"/>
  <outline>
    <contour>
      <point x="109" y="522" type="line"/>
      <point x="168" y="522" type="line"/>
      <point x="177" y="521"/>
      <point x="177" y="519"/>
      <point x="177" y="516" type="curve" smooth="yes"/>
      <point x="171" y="0" type="line"/>
      <point x="233" y="0" type="line"/>
      <point x="234" y="535" type="line" smooth="yes"/>
      <point x="234" y="562"/>
      <point x="210" y="583"/>
      <point x="173" y="583" type="curve" smooth="yes"/>
      <point x="102" y="583"/>
      <point x="70" y="578"/>
      <point x="45" y="562" type="curve"/>
      <point x="45" y="0" type="line"/>
      <point x="103" y="0" type="line"/>
    </contour>
    <contour>
      <point x="144" y="582" type="move" name="top"/>
    </contour>
    <contour>
      <point x="139" y="0" type="move" name="bottom"/>
    </contour>
  </outline>
</glyph>
<glyph name="r" format="1">
  <advance width="235"/>
  <unicode hex="0072"/>
  <outline>
    <contour>
      <point x="218" y="450" type="line"/>
      <point x="218" y="535" type="line" smooth="yes"/>
      <point x="218" y="562"/>
      <point x="194" y="583"/>
      <point x="157" y="583" type="curve" smooth="yes"/>
      <point x="86" y="583"/>
      <point x="67" y="579"/>
      <point x="45" y="574" type="curve"/>
      <point x="45" y="0" type="line"/>
      <point x="111" y="0" type="line"/>
      <point x="109" y="527" type="line"/>
      <point x="152" y="522" type="line" smooth="yes"/>
      <point x="161" y="521"/>
      <point x="161" y="519"/>
      <point x="161" y="516" type="curve" smooth="yes"/>
      <point x="166" y="450" type="line"/>
    </contour>
    <contour>
      <point x="127" y="582" type="move" name="top"/>
    </contour>
    <contour>
      <point x="82" y="0" type="move" name="bottom"/>
    </contour>
  </outline>
</glyph>
<glyph name="s" format="1">
  <advance width="246"/>
  <unicode hex="0073"/>
  <outline>
    <contour>
      <point x="40" y="0" type="line"/>
      <point x="157" y="0" type="line" smooth="yes"/>
      <point x="181" y="0"/>
      <point x="210" y="26"/>
      <point x="210" y="49" type="curve" smooth="yes"/>
      <point x="210" y="323" type="line"/>
      <point x="108" y="350" type="line"/>
      <point x="95" y="517" type="line"/>
      <point x="210" y="533" type="line"/>
      <point x="210" y="582" type="line"/>
      <point x="73" y="582" type="line" smooth="yes"/>
      <point x="56" y="582"/>
      <point x="40" y="561"/>
      <point x="40" y="543" type="curve" smooth="yes"/>
      <point x="40" y="300" type="line"/>
      <point x="132" y="275" type="line"/>
      <point x="152" y="64" type="line"/>
      <point x="40" y="64" type="line"/>
    </contour>
    <contour>
      <point x="126" y="0" type="move" name="bottom"/>
    </contour>
    <contour>
      <point x="128" y="582" type="move" name="top"/>
    </contour>
  </outline>
</glyph>
<glyph name="t" format="1">
  <advance width="238"/>
  <unicode hex="0074"/>
  <outline>
    <contour>
      <point x="99" y="0" type="curve"/>
      <point x="228" y="0" type="line"/>
      <point x="228" y="137" type="line"/>
      <point x="193" y="137" type="line"/>
      <point x="183" y="54" type="line"/>
      <point x="126" y="72" type="line"/>
      <point x="126" y="522" type="line"/>
      <point x="126" y="522"/>
      <point x="226" y="522"/>
      <point x="226" y="522" type="curve"/>
      <point x="226" y="582" type="line"/>
      <point x="128" y="582" type="line"/>
      <point x="128" y="710" type="line"/>
      <point x="80" y="710" type="line"/>
      <point x="63" y="581" type="line"/>
      <point x="20" y="558" type="line"/>
      <point x="20" y="528" type="line"/>
      <point x="63" y="528" type="line"/>
      <point x="56" y="49" type="line"/>
      <point x="56" y="49"/>
      <point x="99" y="0"/>
    </contour>
    <contour>
      <point x="140" y="0" type="move" name="bottom"/>
    </contour>
    <contour>
      <point x="134" y="582" type="move" name="top"/>
    </contour>
  </outline>
</glyph>
<glyph name="v" format="1">
  <advance width="262"/>
  <unicode hex="0076"/>
  <outline>
    <contour>
      <point x="105" y="-25" type="line"/>
      <point x="159" y="-25" type="line"/>
      <point x="252" y="581" type="line"/>
      <point x="184" y="581" type="line"/>
      <point x="140" y="97" type="line"/>
      <point x="129" y="97" type="line"/>
      <point x="89" y="581" type="line"/>
      <point x="12" y="581" type="line"/>
    </contour>
  </outline>
</glyph>
<glyph name="y" format="1">
  <advance width="264"/>
  <unicode hex="0079"/>
  <outline>
    <contour>
      <point x="68" y="-168" type="line"/>
      <point x="136" y="-55" type="line"/>
      <point x="167" y="41" type="line"/>
      <point x="252" y="581" type="line"/>
      <point x="184" y="581" type="line"/>
      <point x="142" y="147" type="line"/>
      <point x="131" y="147" type="line"/>
      <point x="89" y="581" type="line"/>
      <point x="12" y="581" type="line"/>
      <point x="107" y="14" type="line"/>
      <point x="14" y="-131" type="line"/>
    </contour>
    <contour>
      <point x="209" y="0" type="move" name="bottom"/>
    </contour>
    <contour>
      <point x="132" y="582" type="move" name="top"/>
    </contour>
  </outline>
</glyph>
<glyph name="bar" format="1">
  <advance width="192"/>
  <unicode hex="007C"/>
  <outline>
    <contour>
      <point x="125" y="-129" type="line"/>
      <point x="125" y="762" type="line"/>
      <point x="75" y="762" type="line"/>
      <point x="75" y="-126" type="line"/>
    </contour>
  </outline>
</glyph>
<glyph name="asciitilde" format="1">
  <advance width="398"/>
  <unicode hex="007E"/>
  <outline>
    <contour>
      <point x="193" y="366" type="curve"/>
      <point x="134" y="393" type="line"/>
      <point x="40" y="353" type="line"/>
      <point x="43" y="279" type="line"/>
      <point x="85" y="306" type="line" smooth="yes"/>
      <point x="118" y="327"/>
      <point x="126" y="332"/>
      <point x="141" y="332" type="curve" smooth="yes"/>
      <point x="150" y="332"/>
      <point x="165" y="327"/>
      <point x="185" y="318" type="curve" smooth="yes"/>
      <point x="275" y="275" type="line"/>
      <point x="358" y="333" type="line"/>
      <point x="358" y="393" type="line"/>
      <point x="303" y="367" type="line" smooth="yes"/>
      <point x="278" y="355"/>
      <point x="263" y="348"/>
      <point x="252" y="348" type="curve" smooth="yes"/>
      <point x="237" y="348"/>
      <point x="222" y="353"/>
    </contour>
  </outline>
</glyph>
<glyph name="currency" format="1">
  <advance width="339"/>
  <unicode hex="00A4"/>
  <outline>
    <contour>
      <point x="44" y="160" type="line"/>
      <point x="109" y="219" type="line"/>
      <point x="239" y="219" type="line"/>
      <point x="292" y="161" type="line"/>
      <point x="329" y="201" type="line"/>
      <point x="273" y="251" type="line"/>
      <point x="292" y="270" type="line"/>
      <point x="283" y="451" type="line"/>
      <point x="329" y="502" type="line"/>
      <point x="295" y="527" type="line"/>
      <point x="244" y="481" type="line"/>
      <point x="100" y="488" type="line"/>
      <point x="47" y="546" type="line"/>
      <point x="10" y="499" type="line"/>
      <point x="54" y="460" type="line"/>
      <point x="63" y="247" type="line"/>
      <point x="10" y="194" type="line"/>
    </contour>
    <contour>
      <point x="133" y="276" type="line"/>
      <point x="126" y="276"/>
      <point x="121" y="282"/>
      <point x="121" y="285" type="curve"/>
      <point x="109" y="430" type="line"/>
      <point x="109" y="434"/>
      <point x="114" y="436"/>
      <point x="125" y="436" type="curve"/>
      <point x="220" y="436" type="line"/>
      <point x="228" y="433"/>
      <point x="232" y="429"/>
      <point x="232" y="425" type="curve"/>
      <point x="238" y="300" type="line"/>
      <point x="238" y="295"/>
      <point x="232" y="289"/>
      <point x="223" y="288" type="curve"/>
    </contour>
  </outline>
</glyph>
<glyph name="brokenbar" format="1">
  <advance width="192"/>
  <unicode hex="00A6"/>
  <outline>
    <contour>
      <point x="75" y="404" type="line"/>
      <point x="125" y="401" type="line"/>
      <point x="118" y="762" type="line"/>
      <point x="75" y="762" type="line"/>
    </contour>
    <contour>
      <point x="122" y="237" type="line"/>
      <point x="79" y="237" type="line"/>
      <point x="72" y="-124" type="line"/>
      <point x="122" y="-121" type="line"/>
    </contour>
  </outline>
</glyph>
<glyph name="dieresis" format="1">
  <advance width="289"/>
  <unicode hex="00A8"/>
  <outline>
    <contour>
      <point x="35" y="667" type="line"/>
      <point x="114" y="667" type="line"/>
      <point x="118" y="750" type="line"/>
      <point x="35" y="747" type="line"/>
    </contour>
    <contour>
      <point x="178" y="667" type="line"/>
      <point x="254" y="670" type="line"/>
      <point x="254" y="750" type="line"/>
      <point x="175" y="750" type="line"/>
    </contour>
  </outline>
</glyph>
<glyph name="copyright" format="1">
  <advance width="576"/>
  <unicode hex="00A9"/>
  <outline>
    <contour>
      <point x="60" y="0" type="line"/>
      <point x="490" y="0" type="line"/>
      <point x="527" y="710" type="line"/>
      <point x="60" y="710" type="line"/>
    </contour>
    <contour>
      <point x="470" y="636" type="line"/>
      <point x="425" y="40" type="line"/>
      <point x="125" y="52" type="line"/>
      <point x="116" y="61" type="line"/>
      <point x="135" y="648" type="line"/>
      <point x="144" y="654" type="line"/>
      <point x="461" y="642" type="line"/>
    </contour>
    <contour>
      <point x="378" y="277" type="line"/>
      <point x="352" y="277" type="line"/>
      <point x="326" y="257" type="line"/>
      <point x="326" y="169" type="line"/>
      <point x="326" y="165"/>
      <point x="322" y="163"/>
      <point x="314" y="163" type="curve"/>
      <point x="255" y="163" type="line"/>
      <point x="251" y="163"/>
      <point x="249" y="165"/>
      <point x="249" y="169" type="curve"/>
      <point x="249" y="467" type="line"/>
      <point x="249" y="499"/>
      <point x="250" y="530"/>
      <point x="282" y="530" type="curve"/>
      <point x="304" y="530" type="line"/>
      <point x="312" y="530"/>
      <point x="316" y="527"/>
      <point x="316" y="521" type="curve"/>
      <point x="316" y="408" type="line"/>
      <point x="362" y="408" type="line"/>
      <point x="378" y="569" type="line"/>
      <point x="264" y="589" type="line"/>
      <point x="260" y="589"/>
      <point x="255" y="590"/>
      <point x="251" y="590" type="curve"/>
      <point x="207" y="590"/>
      <point x="184" y="560"/>
      <point x="184" y="533" type="curve"/>
      <point x="184" y="152" type="line"/>
      <point x="225" y="110" type="line"/>
      <point x="378" y="110" type="line"/>
    </contour>
  </outline>
</glyph>
<glyph name="ordfeminine" format="1">
  <advance width="222"/>
  <unicode hex="00AA"/>
  <outline>
    <contour>
      <point x="45" y="355" type="line"/>
      <point x="86" y="355" type="line"/>
      <point x="97" y="459" type="line"/>
      <point x="137" y="484" type="line"/>
      <point x="155" y="355" type="line"/>
      <point x="187" y="355" type="line"/>
      <point x="166" y="710" type="line"/>
      <point x="67" y="710" type="line"/>
    </contour>
    <contour>
      <point x="101" y="513" type="line" smooth="yes"/>
      <point x="99" y="513"/>
      <point x="98" y="514"/>
      <point x="98" y="515" type="curve"/>
      <point x="98" y="669" type="line" smooth="yes"/>
      <point x="98" y="671"/>
      <point x="99" y="673"/>
      <point x="101" y="674" type="curve"/>
      <point x="132" y="679" type="line" smooth="yes"/>
      <point x="134" y="679"/>
      <point x="135" y="678"/>
      <point x="135" y="676" type="curve"/>
      <point x="130" y="516" type="line" smooth="yes"/>
      <point x="130" y="514"/>
      <point x="129" y="513"/>
      <point x="127" y="513" type="curve" smooth="yes"/>
    </contour>
  </outline>
</glyph>
<glyph name="uni00AD" format="1">
  <advance width="298"/>
  <unicode hex="00AD"/>
  <outline>
    <contour>
      <point x="288" y="308" type="line"/>
      <point x="288" y="357" type="line"/>
      <point x="10" y="366" type="line"/>
      <point x="13" y="308" type="line"/>
    </contour>
  </outline>
</glyph>
<glyph name="macron" format="1">
  <advance width="328"/>
  <unicode hex="00AF"/>
  <outline>
    <contour>
      <point x="298" y="812" type="line"/>
      <point x="298" y="867" type="line"/>
      <point x="30" y="867" type="line"/>
      <point x="33" y="803" type="line"/>
    </contour>
    <contour>
      <point x="166" y="900" type="move" name="top"/>
    </contour>
    <contour>
      <point x="164" y="710" type="move" name="_top"/>
    </contour>
  </outline>
</glyph>
<glyph name="plusminus" format="1">
  <advance width="339"/>
  <unicode hex="00B1"/>
  <outline>
    <contour>
      <point x="140" y="240" type="line"/>
      <point x="188" y="240" type="line"/>
      <point x="198" y="390" type="line"/>
      <point x="328" y="390" type="line"/>
      <point x="328" y="439" type="line"/>
      <point x="198" y="448" type="line"/>
      <point x="198" y="598" type="line"/>
      <point x="139" y="598" type="line"/>
      <point x="145" y="443" type="line"/>
      <point x="10" y="448" type="line"/>
      <point x="10" y="390" type="line"/>
      <point x="140" y="390" type="line"/>
    </contour>
    <contour>
      <point x="13" y="120" type="line"/>
      <point x="328" y="120" type="line"/>
      <point x="328" y="169" type="line"/>
      <point x="10" y="178" type="line"/>
    </contour>
  </outline>
</glyph>
<glyph name="twosuperior" format="1">
  <advance width="248"/>
  <unicode hex="00B2"/>
  <outline>
    <contour>
      <point x="45" y="345" type="line"/>
      <point x="203" y="345" type="line"/>
      <point x="203" y="392" type="line"/>
      <point x="113" y="403" type="line"/>
      <point x="192" y="533" type="line"/>
      <point x="199" y="710" type="line"/>
      <point x="99" y="710" type="line"/>
      <point x="62" y="662" type="line"/>
      <point x="62" y="566" type="line"/>
      <point x="96" y="568" type="line"/>
      <point x="106" y="659" type="line"/>
      <point x="148" y="659" type="line"/>
      <point x="143" y="554" type="line"/>
      <point x="53" y="399" type="line"/>
    </contour>
  </outline>
</glyph>
<glyph name="uni00B2" format="1">
  <advance width="248"/>
  <unicode hex="00B2"/>
  <outline>
    <contour>
      <point x="203" y="345" type="line"/>
      <point x="203" y="392" type="line"/>
      <point x="113" y="403" type="line"/>
      <point x="192" y="533" type="line"/>
      <point x="199" y="710" type="line"/>
      <point x="99" y="710" type="line"/>
      <point x="62" y="662" type="line"/>
      <point x="62" y="566" type="line"/>
      <point x="96" y="568" type="line"/>
      <point x="106" y="659" type="line"/>
      <point x="148" y="659" type="line"/>
      <point x="143" y="554" type="line"/>
      <point x="53" y="399" type="line"/>
      <point x="45" y="345" type="line"/>
    </contour>
  </outline>
</glyph>
<glyph name="acute" format="1">
  <advance width="170"/>
  <unicode hex="00B4"/>
  <outline>
    <contour>
      <point x="54" y="640" type="line"/>
      <point x="150" y="724" type="line"/>
      <point x="104" y="772" type="line"/>
      <point x="20" y="664" type="line"/>
    </contour>
  </outline>
</glyph>
<glyph name="micro" format="1">
  <advance width="304"/>
  <unicode hex="00B5"/>
  <outline>
    <contour>
      <point x="53" y="-228" type="line"/>
      <point x="122" y="-222" type="line"/>
      <point x="89" y="11" type="line"/>
      <point x="280" y="-9" type="line"/>
      <point x="280" y="37" type="line"/>
      <point x="250" y="56" type="line"/>
      <point x="260" y="703" type="line"/>
      <point x="190" y="707" type="line"/>
      <point x="180" y="79" type="line"/>
      <point x="101" y="93" type="line"/>
      <point x="122" y="710" type="line"/>
      <point x="38" y="710" type="line"/>
      <point x="35" y="11" type="line"/>
    </contour>
  </outline>
</glyph>
<glyph name="periodcentered" format="1">
  <advance width="206"/>
  <unicode hex="00B7"/>
  <outline>
    <contour>
      <point x="156" y="417" type="line"/>
      <point x="60" y="413" type="line"/>
      <point x="60" y="321" type="line"/>
      <point x="152" y="321" type="line"/>
    </contour>
  </outline>
</glyph>
<glyph name="AE" format="1">
  <advance width="455"/>
  <unicode hex="00C6"/>
  <outline>
    <contour>
      <point x="21" y="0" type="line"/>
      <point x="68" y="0" type="line"/>
      <point x="114" y="278" type="line"/>
      <point x="185" y="278" type="line"/>
      <point x="211" y="0" type="line"/>
      <point x="427" y="0" type="line"/>
      <point x="415" y="101" type="line"/>
      <point x="280" y="83" type="line"/>
      <point x="280" y="393" type="line"/>
      <point x="384" y="411" type="line"/>
      <point x="384" y="461" type="line"/>
      <point x="275" y="461" type="line"/>
      <point x="275" y="632" type="line"/>
      <point x="418" y="632" type="line"/>
      <point x="418" y="710" type="line"/>
      <point x="66" y="710" type="line"/>
    </contour>
    <contour>
      <point x="137" y="325" type="line" smooth="yes"/>
      <point x="133" y="325"/>
      <point x="131" y="327"/>
      <point x="131" y="330" type="curve" smooth="yes"/>
      <point x="131" y="672" type="line" smooth="yes"/>
      <point x="131" y="676"/>
      <point x="133" y="678"/>
      <point x="137" y="678" type="curve" smooth="yes"/>
      <point x="180" y="678" type="line" smooth="yes"/>
      <point x="184" y="678"/>
      <point x="186" y="676"/>
      <point x="186" y="672" type="curve"/>
      <point x="186" y="331" type="line" smooth="yes"/>
      <point x="186" y="327"/>
      <point x="184" y="325"/>
      <point x="180" y="325" type="curve" smooth="yes"/>
    </contour>
    <contour>
      <point x="220" y="0" type="move" name="bottom"/>
    </contour>
    <contour>
      <point x="228" y="710" type="move" name="top"/>
    </contour>
  </outline>
</glyph>
<glyph name="multiply" format="1">
  <advance width="339"/>
  <unicode hex="00D7"/>
  <outline>
    <contour>
      <point x="169" y="298" type="line"/>
      <point x="270" y="173" type="line"/>
      <point x="319" y="223" type="line"/>
      <point x="208" y="341" type="line"/>
      <point x="322" y="464" type="line"/>
      <point x="281" y="504" type="line"/>
      <point x="179" y="384" type="line"/>
      <point x="60" y="513" type="line"/>
      <point x="16" y="468" type="line"/>
      <point x="137" y="336" type="line"/>
      <point x="16" y="221" type="line"/>
      <point x="62" y="176" type="line"/>
    </contour>
  </outline>
</glyph>
<glyph name="Hbar" format="1">
  <advance width="325"/>
  <unicode hex="0126"/>
  <outline>
    <contour>
      <point x="324" y="512" type="line"/>
      <point x="324" y="561" type="line"/>
      <point x="-1" y="570" type="line"/>
      <point x="2" y="512" type="line"/>
    </contour>
    <component base="H"/>
  </outline>
</glyph>
<glyph name="iogonek" format="1">
  <advance width="163"/>
  <unicode hex="012F"/>
  <outline>
    <contour>
      <point x="125" y="-24" type="line"/>
      <point x="126" y="21" type="line"/>
      <point x="111" y="50" type="line"/>
      <point x="38" y="-95" type="line"/>
      <point x="126" y="-209" type="line"/>
      <point x="239" y="-146" type="line"/>
      <point x="223" y="-100" type="line"/>
      <point x="134" y="-145" type="line"/>
      <point x="100" y="-83" type="line"/>
    </contour>
    <component base="i"/>
  </outline>
</glyph>
<glyph name="IJ" format="1">
  <advance width="433"/>
  <unicode hex="0132"/>
  <outline>
    <contour>
      <point x="44" y="0" type="line"/>
      <point x="118" y="0" type="line"/>
      <point x="127" y="710" type="line"/>
      <point x="26" y="710" type="line"/>
      <point x="26" y="664" type="line"/>
      <point x="44" y="616" type="line"/>
    </contour>
    <contour>
      <point x="297" y="710" type="line"/>
      <point x="393" y="710" type="line"/>
      <point x="384" y="0" type="line"/>
      <point x="203" y="0" type="line"/>
      <point x="167" y="172" type="line"/>
      <point x="246" y="192" type="line"/>
      <point x="251" y="54" type="line"/>
      <point x="315" y="49" type="line"/>
      <point x="315" y="616" type="line"/>
      <point x="297" y="664" type="line"/>
    </contour>
  </outline>
</glyph>
<glyph name="Ldot" format="1">
  <advance width="264"/>
  <unicode hex="013F"/>
  <outline>
    <contour>
      <point x="264" y="420" type="line"/>
      <point x="168" y="416" type="line"/>
      <point x="168" y="324" type="line"/>
      <point x="260" y="324" type="line"/>
    </contour>
    <component base="L"/>
  </outline>
</glyph>
<glyph name="oe" format="1">
  <advance width="431"/>
  <unicode hex="0153"/>
  <outline>
    <contour>
      <point x="104" y="0" type="line"/>
      <point x="388" y="0" type="line"/>
      <point x="388" y="122" type="line"/>
      <point x="345" y="122" type="line"/>
      <point x="328" y="56" type="line"/>
      <point x="269" y="57" type="line" smooth="yes"/>
      <point x="263" y="57"/>
      <point x="261" y="61"/>
      <point x="261" y="65" type="curve" smooth="yes"/>
      <point x="262" y="263" type="line"/>
      <point x="350" y="258" type="line"/>
      <point x="391" y="290" type="line"/>
      <point x="391" y="531" type="line" smooth="yes"/>
      <point x="391" y="556"/>
      <point x="374" y="582"/>
      <point x="348" y="582" type="curve" smooth="yes"/>
      <point x="88" y="582" type="line"/>
      <point x="45" y="550" type="line"/>
      <point x="45" y="42" type="line"/>
    </contour>
    <contour>
      <point x="112" y="521" type="line" smooth="yes"/>
      <point x="112" y="527"/>
      <point x="116" y="530"/>
      <point x="121" y="530" type="curve" smooth="yes"/>
      <point x="183" y="530" type="line" smooth="yes"/>
      <point x="192" y="530"/>
      <point x="192" y="527"/>
      <point x="192" y="521" type="curve" smooth="yes"/>
      <point x="182" y="69" type="line" smooth="yes"/>
      <point x="182" y="65"/>
      <point x="182" y="63"/>
      <point x="173" y="63" type="curve" smooth="yes"/>
      <point x="121" y="63" type="line" smooth="yes"/>
      <point x="112" y="63"/>
      <point x="112" y="65"/>
      <point x="112" y="69" type="curve" smooth="yes"/>
    </contour>
    <contour>
      <point x="254" y="521"/>
      <point x="254" y="524"/>
      <point x="263" y="524" type="curve" smooth="yes"/>
      <point x="321" y="524" type="line" smooth="yes"/>
      <point x="326" y="524"/>
      <point x="330" y="521"/>
      <point x="330" y="515" type="curve" smooth="yes"/>
      <point x="324" y="329" type="line" smooth="yes"/>
      <point x="324" y="318"/>
      <point x="320" y="318"/>
      <point x="315" y="318" type="curve" smooth="yes"/>
      <point x="259" y="318" type="line"/>
      <point x="254" y="515" type="line"/>
    </contour>
  </outline>
</glyph>
<glyph name="tcaron" format="1">
  <advance width="257"/>
  <unicode hex="0165"/>
  <outline>
    <contour>
      <point x="265" y="783" type="line"/>
      <point x="179" y="779" type="line"/>
      <point x="211" y="687" type="line"/>
      <point x="160" y="612" type="line"/>
      <point x="213" y="612" type="line"/>
      <point x="271" y="687" type="line"/>
    </contour>
    <component base="t"/>
  </outline>
</glyph>
<glyph name="longs" format="1">
  <advance width="292"/>
  <unicode hex="017F"/>
  <outline>
    <contour>
      <point x="44" y="-20" type="line"/>
      <point x="126" y="-20" type="line"/>
      <point x="99" y="616" type="line"/>
      <point x="258" y="628" type="line"/>
      <point x="258" y="690" type="line"/>
      <point x="44" y="710" type="line"/>
    </contour>
  </outline>
</glyph>
<glyph name="florin" format="1">
  <advance width="311"/>
  <unicode hex="0192"/>
  <outline>
    <contour>
      <point x="65" y="-87" type="line"/>
      <point x="119" y="-39" type="line"/>
      <point x="139" y="372" type="line"/>
      <point x="272" y="389" type="line"/>
      <point x="277" y="447" type="line"/>
      <point x="162" y="447" type="line"/>
      <point x="175" y="616" type="line"/>
      <point x="291" y="628" type="line"/>
      <point x="296" y="690" type="line"/>
      <point x="160" y="705" type="line"/>
      <point x="100" y="654" type="line"/>
      <point x="83" y="451" type="line"/>
      <point x="31" y="448" type="line"/>
      <point x="31" y="398" type="line"/>
      <point x="78" y="385" type="line"/>
      <point x="45" y="-20" type="line"/>
      <point x="-61" y="-32" type="line"/>
      <point x="-66" y="-74" type="line"/>
    </contour>
  </outline>
</glyph>
<glyph name="uni01CA" format="1">
  <advance width="619"/>
  <unicode hex="01CA"/>
  <outline>
    <contour>
      <point x="189" y="0" type="line"/>
      <point x="304" y="0" type="line"/>
      <point x="314" y="710" type="line"/>
      <point x="256" y="710" type="line"/>
      <point x="234" y="58" type="line"/>
      <point x="230" y="58" type="line"/>
      <point x="140" y="710" type="line"/>
      <point x="24" y="710" type="line"/>
      <point x="24" y="0" type="line"/>
      <point x="83" y="0" type="line"/>
      <point x="83" y="651" type="line"/>
      <point x="87" y="651" type="line"/>
    </contour>
    <contour>
      <point x="389" y="0" type="line"/>
      <point x="570" y="0" type="line"/>
      <point x="579" y="710" type="line"/>
      <point x="483" y="710" type="line"/>
      <point x="483" y="664" type="line"/>
      <point x="501" y="616" type="line"/>
      <point x="501" y="49" type="line"/>
      <point x="437" y="54" type="line"/>
      <point x="432" y="192" type="line"/>
      <point x="353" y="172" type="line"/>
    </contour>
  </outline>
</glyph>
<glyph name="uni01EB" format="1">
  <advance width="298"/>
  <unicode hex="01EB"/>
  <outline>
    <contour>
      <point x="253" y="36" type="line"/>
      <point x="226" y="40" type="line"/>
      <point x="211" y="50" type="line"/>
      <point x="116" y="-95" type="line"/>
      <point x="204" y="-209" type="line"/>
      <point x="301" y="-146" type="line"/>
      <point x="285" y="-100" type="line"/>
      <point x="212" y="-145" type="line"/>
      <point x="178" y="-83" type="line"/>
    </contour>
    <component base="o"/>
  </outline>
</glyph>
<glyph name="uni01F1" format="1">
  <advance width="588"/>
  <unicode hex="01F1"/>
  <outline>
    <contour>
      <point x="155" y="710" type="curve"/>
      <point x="40" y="710" type="line"/>
      <point x="40" y="0" type="line"/>
      <point x="173" y="0" type="line"/>
      <point x="234" y="57" type="line"/>
      <point x="264" y="600" type="line"/>
      <point x="264" y="664"/>
      <point x="219" y="710"/>
    </contour>
    <contour>
      <point x="556" y="65" type="line"/>
      <point x="564" y="0" type="line"/>
      <point x="340" y="0" type="line"/>
      <point x="322" y="22" type="line"/>
      <point x="356" y="88" type="line"/>
      <point x="474" y="638" type="line"/>
      <point x="338" y="670" type="line"/>
      <point x="338" y="710" type="line"/>
      <point x="533" y="710" type="line"/>
      <point x="564" y="679" type="line"/>
      <point x="422" y="84" type="line"/>
    </contour>
    <contour>
      <point x="178" y="638" type="curve"/>
      <point x="167" y="84" type="line" smooth="yes"/>
      <point x="167" y="79"/>
      <point x="164" y="75"/>
      <point x="158" y="71" type="curve"/>
      <point x="121" y="66" type="line"/>
      <point x="112" y="72" type="line"/>
      <point x="112" y="638" type="line" smooth="yes"/>
      <point x="112" y="641"/>
      <point x="118" y="644"/>
      <point x="121" y="644" type="curve" smooth="yes"/>
      <point x="166" y="644" type="line" smooth="yes"/>
      <point x="174" y="644"/>
      <point x="178" y="642"/>
    </contour>
  </outline>
</glyph>
<glyph name="Aringacute" format="1">
  <advance width="289"/>
  <unicode hex="01FA"/>
  <outline>
    <contour>
      <point x="21" y="0" type="line"/>
      <point x="68" y="0" type="line"/>
      <point x="114" y="278" type="line"/>
      <point x="165" y="278" type="line"/>
      <point x="191" y="0" type="line"/>
      <point x="249" y="0" type="line"/>
      <point x="249" y="710" type="line"/>
      <point x="229" y="710" type="line"/>
      <point x="229" y="796" type="line"/>
      <point x="90" y="790" type="line"/>
      <point x="90" y="710" type="line"/>
      <point x="66" y="710" type="line"/>
    </contour>
    <contour>
      <point x="137" y="325" type="line" smooth="yes"/>
      <point x="133" y="325"/>
      <point x="131" y="327"/>
      <point x="131" y="330" type="curve" smooth="yes"/>
      <point x="131" y="675" type="line"/>
      <point x="185" y="675" type="line"/>
      <point x="186" y="674"/>
      <point x="186" y="673"/>
      <point x="186" y="672" type="curve"/>
      <point x="186" y="331" type="line" smooth="yes"/>
      <point x="186" y="327"/>
      <point x="184" y="325"/>
      <point x="180" y="325" type="curve" smooth="yes"/>
    </contour>
    <contour>
      <point x="136" y="710" type="line" smooth="yes"/>
      <point x="134" y="710"/>
      <point x="133" y="711"/>
      <point x="133" y="714" type="curve" smooth="yes"/>
      <point x="133" y="760" type="line" smooth="yes"/>
      <point x="133" y="762"/>
      <point x="136" y="763"/>
      <point x="141" y="763" type="curve"/>
      <point x="181" y="758" type="line"/>
      <point x="185" y="756"/>
      <point x="187" y="754"/>
      <point x="187" y="752" type="curve" smooth="yes"/>
      <point x="187" y="716" type="line" smooth="yes"/>
      <point x="187" y="712"/>
      <point x="185" y="710"/>
      <point x="180" y="710" type="curve"/>
    </contour>
    <contour>
      <point x="109" y="811" type="line"/>
      <point x="235" y="833" type="line"/>
      <point x="226" y="888" type="line"/>
      <point x="93" y="849" type="line"/>
    </contour>
  </outline>
</glyph>
<glyph name="doubleprimemod" format="1">
  <advance width="227"/>
  <unicode hex="02BA"/>
  <outline>
    <contour>
      <point x="54" y="478" type="line"/>
      <point x="95" y="646" type="line"/>
      <point x="102" y="714" type="line"/>
      <point x="23" y="718" type="line"/>
      <point x="0" y="486" type="line"/>
    </contour>
    <contour>
      <point x="179" y="478" type="line"/>
      <point x="220" y="616" type="line"/>
      <point x="227" y="714" type="line"/>
      <point x="148" y="718" type="line"/>
      <point x="130" y="486" type="line"/>
    </contour>
  </outline>
</glyph>
<glyph name="uni02BC" format="1">
  <advance width="150"/>
  <unicode hex="02BC"/>
  <outline>
    <contour>
      <point x="120" y="710" type="line"/>
      <point x="39" y="710" type="line"/>
      <point x="39" y="628" type="line"/>
      <point x="81" y="628" type="line"/>
      <point x="35" y="554" type="line"/>
      <point x="90" y="538" type="line"/>
      <point x="123" y="628" type="line"/>
    </contour>
    <contour>
      <point x="75" y="900" type="move" name="top"/>
    </contour>
    <contour>
      <point x="75" y="710" type="move" name="_top"/>
    </contour>
  </outline>
</glyph>
<glyph name="circumflex" format="1">
  <advance width="228"/>
  <unicode hex="02C6"/>
  <outline>
    <contour>
      <point x="134" y="897" type="line"/>
      <point x="94" y="900" type="line"/>
      <point x="20" y="787" type="line"/>
      <point x="49" y="768" type="line"/>
      <point x="114" y="830" type="line"/>
      <point x="179" y="768" type="line"/>
      <point x="208" y="787" type="line"/>
    </contour>
    <contour>
      <point x="114" y="900" type="move" name="top"/>
    </contour>
    <contour>
      <point x="111" y="710" type="move" name="_top"/>
    </contour>
  </outline>
</glyph>
<glyph name="caron" format="1">
  <advance width="228"/>
  <unicode hex="02C7"/>
  <outline>
    <contour>
      <point x="134" y="640" type="line"/>
      <point x="208" y="753" type="line"/>
      <point x="179" y="772" type="line"/>
      <point x="114" y="710" type="line"/>
      <point x="49" y="772" type="line"/>
      <point x="20" y="753" type="line"/>
      <point x="94" y="643" type="line"/>
    </contour>
  </outline>
</glyph>
<glyph name="breve" format="1">
  <advance width="273"/>
  <unicode hex="02D8"/>
  <outline>
    <contour>
      <point x="78" y="840" type="line"/>
      <point x="83" y="888" type="line"/>
      <point x="30" y="888" type="line"/>
      <point x="34" y="807" type="line"/>
      <point x="79" y="779" type="line"/>
      <point x="204" y="779" type="line"/>
      <point x="243" y="818" type="line"/>
      <point x="243" y="894" type="line"/>
      <point x="197" y="890" type="line"/>
      <point x="200" y="824" type="line"/>
      <point x="90" y="829" type="line"/>
    </contour>
    <contour>
      <point x="136" y="900" type="move" name="top"/>
    </contour>
    <contour>
      <point x="132" y="710" type="move" name="_top"/>
    </contour>
  </outline>
</glyph>
<glyph name="dotaccent" format="1">
  <advance width="153"/>
  <unicode hex="02D9"/>
  <outline>
    <contour>
      <point x="123" y="884" type="line"/>
      <point x="30" y="884" type="line"/>
      <point x="34" y="786" type="line"/>
      <point x="123" y="789" type="line"/>
    </contour>
    <contour>
      <point x="77" y="900" type="move" name="top"/>
    </contour>
    <contour>
      <point x="77" y="710" type="move" name="_top"/>
    </contour>
  </outline>
</glyph>
<glyph name="ring" format="1">
  <advance width="199"/>
  <unicode hex="02DA"/>
  <outline>
    <contour>
      <point x="169" y="793" type="line"/>
      <point x="169" y="902" type="line"/>
      <point x="30" y="902" type="line"/>
      <point x="30" y="767" type="line"/>
      <point x="144" y="767" type="line"/>
    </contour>
    <contour>
      <point x="127" y="804"/>
      <point x="125" y="802"/>
      <point x="120" y="802" type="curve"/>
      <point x="79" y="802" type="line" smooth="yes"/>
      <point x="75" y="802"/>
      <point x="73" y="803"/>
      <point x="73" y="806" type="curve" smooth="yes"/>
      <point x="73" y="872" type="line" smooth="yes"/>
      <point x="73" y="874"/>
      <point x="76" y="875"/>
      <point x="81" y="875" type="curve"/>
      <point x="121" y="870" type="line"/>
      <point x="125" y="868"/>
      <point x="127" y="866"/>
      <point x="127" y="864" type="curve" smooth="yes"/>
      <point x="127" y="808" type="line" smooth="yes"/>
    </contour>
    <contour>
      <point x="95" y="900" type="move" name="top"/>
    </contour>
    <contour>
      <point x="95" y="710" type="move" name="_top"/>
    </contour>
  </outline>
</glyph>
<glyph name="ogonek" format="1">
  <advance width="301"/>
  <unicode hex="02DB"/>
  <outline>
    <contour>
      <point x="118" y="0" type="line"/>
      <point x="118" y="40" type="line"/>
      <point x="103" y="50" type="line"/>
      <point x="30" y="-95" type="line"/>
      <point x="118" y="-209" type="line"/>
      <point x="215" y="-146" type="line"/>
      <point x="199" y="-100" type="line"/>
      <point x="126" y="-145" type="line"/>
      <point x="92" y="-83" type="line"/>
    </contour>
    <contour>
      <point x="37" y="0" type="move" name="_bottom"/>
    </contour>
    <contour>
      <point x="37" y="-226" type="move" name="bottom"/>
    </contour>
  </outline>
</glyph>
<glyph name="tilde" format="1">
  <advance width="328"/>
  <unicode hex="02DC"/>
  <outline>
    <contour>
      <point x="62" y="643" type="line"/>
      <point x="123" y="695" type="line"/>
      <point x="165" y="665" type="line" smooth="yes"/>
      <point x="181" y="653"/>
      <point x="194" y="646"/>
      <point x="208" y="646" type="curve" smooth="yes"/>
      <point x="220" y="646"/>
      <point x="240" y="655"/>
      <point x="251" y="669" type="curve" smooth="yes"/>
      <point x="269" y="691" type="line"/>
      <point x="269" y="745" type="line"/>
      <point x="204" y="698" type="line"/>
      <point x="168" y="722" type="line" smooth="yes"/>
      <point x="152" y="733"/>
      <point x="134" y="742"/>
      <point x="116" y="742" type="curve" smooth="yes"/>
      <point x="102" y="742"/>
      <point x="90" y="737"/>
      <point x="79" y="728" type="curve"/>
      <point x="59" y="706" type="line"/>
    </contour>
    <contour>
      <point x="164" y="582" type="move" name="_top"/>
    </contour>
    <contour>
      <point x="164" y="762" type="move" name="top"/>
    </contour>
  </outline>
</glyph>
<glyph name="hungarumlaut" format="1">
  <advance width="300"/>
  <unicode hex="02DD"/>
  <outline>
    <contour>
      <point x="184" y="640" type="line"/>
      <point x="280" y="724" type="line"/>
      <point x="234" y="772" type="line"/>
      <point x="150" y="664" type="line"/>
    </contour>
    <contour>
      <point x="54" y="640" type="line"/>
      <point x="150" y="724" type="line"/>
      <point x="104" y="772" type="line"/>
      <point x="20" y="664" type="line"/>
    </contour>
  </outline>
</glyph>
<glyph name="gravecomb" format="1">
  <advance width="0"/>
  <unicode hex="0300"/>
  <outline>
    <contour>
      <point x="116" y="768" type="line"/>
      <point x="150" y="792" type="line"/>
      <point x="66" y="900" type="line"/>
      <point x="20" y="852" type="line"/>
    </contour>
    <contour>
      <point x="85" y="900" type="move" name="top"/>
    </contour>
    <contour>
      <point x="95" y="710" type="move" name="_top"/>
    </contour>
  </outline>
</glyph>
<glyph name="acutecomb" format="1">
  <advance width="0"/>
  <unicode hex="0301"/>
  <outline>
    <contour>
      <point x="150" y="852" type="line"/>
      <point x="104" y="900" type="line"/>
      <point x="20" y="792" type="line"/>
      <point x="54" y="768" type="line"/>
    </contour>
    <contour>
      <point x="85" y="900" type="move" name="top"/>
    </contour>
    <contour>
      <point x="69" y="710" type="move" name="_top"/>
    </contour>
  </outline>
</glyph>
<glyph name="uni0302" format="1">
  <advance width="0"/>
  <unicode hex="0302"/>
  <outline>
    <contour>
      <point x="134" y="897" type="line"/>
      <point x="94" y="900" type="line"/>
      <point x="20" y="787" type="line"/>
      <point x="49" y="768" type="line"/>
      <point x="114" y="830" type="line"/>
      <point x="179" y="768" type="line"/>
      <point x="208" y="787" type="line"/>
    </contour>
    <contour>
      <point x="114" y="900" type="move" name="top"/>
    </contour>
    <contour>
      <point x="114" y="710" type="move" name="_top"/>
    </contour>
  </outline>
</glyph>
<glyph name="tildecomb" format="1">
  <advance width="210"/>
  <unicode hex="0303"/>
  <outline>
    <component base="tilde" xOffset="-59" yOffset="-10"/>
    <contour>
      <point x="106" y="582" type="move" name="_top"/>
    </contour>
    <contour>
      <point x="106" y="682" type="move" name="top"/>
    </contour>
  </outline>
</glyph>
<glyph name="uni0306" format="1">
  <advance width="0"/>
  <unicode hex="0306"/>
  <outline>
    <contour>
      <point x="78" y="840" type="line"/>
      <point x="83" y="888" type="line"/>
      <point x="30" y="888" type="line"/>
      <point x="34" y="807" type="line"/>
      <point x="79" y="779" type="line"/>
      <point x="204" y="779" type="line"/>
      <point x="243" y="818" type="line"/>
      <point x="243" y="894" type="line"/>
      <point x="197" y="890" type="line"/>
      <point x="200" y="824" type="line"/>
      <point x="90" y="829" type="line"/>
    </contour>
    <contour>
      <point x="139" y="900" type="move" name="top"/>
    </contour>
    <contour>
      <point x="139" y="710" type="move" name="_top"/>
    </contour>
  </outline>
</glyph>
<glyph name="uni0307" format="1">
  <advance width="0"/>
  <unicode hex="0307"/>
  <outline>
    <contour>
      <point x="123" y="884" type="line"/>
      <point x="30" y="884" type="line"/>
      <point x="34" y="786" type="line"/>
      <point x="123" y="789" type="line"/>
    </contour>
    <contour>
      <point x="76" y="900" type="move" name="top"/>
    </contour>
    <contour>
      <point x="76" y="710" type="move" name="_top"/>
    </contour>
  </outline>
</glyph>
<glyph name="dieresiscomb" format="1">
  <advance width="219"/>
  <unicode hex="0308"/>
  <outline>
    <component base="dieresis" xOffset="-35"/>
    <contour>
      <point x="112" y="582" type="move" name="_top"/>
    </contour>
    <contour>
      <point x="112" y="722" type="move" name="top"/>
    </contour>
  </outline>
</glyph>
<glyph name="hookabovecomb" format="1">
  <advance width="124"/>
  <unicode hex="0309"/>
  <outline>
    <contour>
      <point x="40" y="637" type="line"/>
      <point x="75" y="637" type="line"/>
      <point x="84" y="667" type="line"/>
      <point x="124" y="683" type="line"/>
      <point x="124" y="727" type="line" smooth="yes"/>
      <point x="124" y="749"/>
      <point x="111" y="763"/>
      <point x="89" y="762" type="curve" smooth="yes"/>
      <point x="0" y="757" type="line"/>
      <point x="1" y="729" type="line"/>
      <point x="65" y="722" type="line"/>
      <point x="67" y="699" type="line"/>
      <point x="24" y="682" type="line"/>
    </contour>
    <contour>
      <point x="60" y="582" type="move" name="_top"/>
    </contour>
    <contour>
      <point x="60" y="762" type="move" name="top"/>
    </contour>
  </outline>
</glyph>
<glyph name="uni030B" format="1">
  <advance width="0"/>
  <unicode hex="030B"/>
  <outline>
    <contour>
      <point x="150" y="852" type="line"/>
      <point x="104" y="900" type="line"/>
      <point x="20" y="792" type="line"/>
      <point x="54" y="768" type="line"/>
    </contour>
    <contour>
      <point x="280" y="852" type="line"/>
      <point x="234" y="900" type="line"/>
      <point x="150" y="792" type="line"/>
      <point x="184" y="768" type="line"/>
    </contour>
    <contour>
      <point x="150" y="900" type="move" name="top"/>
    </contour>
    <contour>
      <point x="140" y="710" type="move" name="_top"/>
    </contour>
  </outline>
</glyph>
<glyph name="dotbelowcomb" format="1">
  <advance width="0"/>
  <unicode hex="0323"/>
  <outline>
    <contour>
      <point x="30" y="-56" type="line"/>
      <point x="34" y="-154" type="line"/>
      <point x="123" y="-151" type="line"/>
      <point x="123" y="-56" type="line"/>
    </contour>
    <contour>
      <point x="75" y="0" type="move" name="_bottom"/>
    </contour>
    <contour>
      <point x="75" y="-226" type="move" name="bottom"/>
    </contour>
  </outline>
</glyph>
<glyph name="commaaccentcomb" format="1">
  <advance width="88"/>
  <unicode hex="0326"/>
  <outline>
    <contour>
      <point x="55" y="-230" type="line"/>
      <point x="88" y="-140" type="line"/>
      <point x="85" y="-58" type="line"/>
      <point x="4" y="-58" type="line"/>
      <point x="4" y="-140" type="line"/>
      <point x="46" y="-140" type="line"/>
      <point x="0" y="-214" type="line"/>
    </contour>
    <contour>
      <point x="45" y="0" type="move" name="_bottom"/>
    </contour>
    <contour>
      <point x="45" y="-220" type="move" name="bottom"/>
    </contour>
  </outline>
</glyph>
<glyph name="ogonekcomb" format="1">
  <advance width="175"/>
  <unicode hex="0328"/>
  <outline>
    <component base="ogonek" xOffset="-40"/>
    <contour>
      <point x="158" y="0" type="move" name="_ogonek"/>
    </contour>
  </outline>
</glyph>
<glyph name="endash" format="1">
  <advance width="338"/>
  <unicode hex="2013"/>
  <outline>
    <contour>
      <point x="288" y="319" type="line"/>
      <point x="291" y="376" type="line"/>
      <point x="47" y="381" type="line"/>
      <point x="47" y="308" type="line"/>
    </contour>
  </outline>
</glyph>
<glyph name="emdash" format="1">
  <advance width="411"/>
  <unicode hex="2014"/>
  <outline>
    <contour>
      <point x="360" y="319" type="line"/>
      <point x="363" y="376" type="line"/>
      <point x="49" y="381" type="line"/>
      <point x="49" y="308" type="line"/>
    </contour>
  </outline>
</glyph>
<glyph name="quotesinglbase" format="1">
  <advance width="198"/>
  <unicode hex="201A"/>
  <outline>
    <contour>
      <point x="92" y="-144" type="line"/>
      <point x="147" y="-18" type="line"/>
      <point x="152" y="92" type="line"/>
      <point x="53" y="87" type="line"/>
      <point x="90" y="-18" type="line"/>
      <point x="43" y="-127" type="line"/>
    </contour>
  </outline>
</glyph>
<glyph name="quotedblleft" format="1">
  <advance width="348"/>
  <unicode hex="201C"/>
  <outline>
    <contour>
      <point x="189" y="487" type="line"/>
      <point x="288" y="492" type="line"/>
      <point x="251" y="597" type="line"/>
      <point x="298" y="706" type="line"/>
      <point x="249" y="723" type="line"/>
      <point x="194" y="597" type="line"/>
    </contour>
    <contour>
      <point x="43" y="487" type="line"/>
      <point x="142" y="492" type="line"/>
      <point x="105" y="597" type="line"/>
      <point x="152" y="706" type="line"/>
      <point x="103" y="723" type="line"/>
      <point x="48" y="597" type="line"/>
    </contour>
  </outline>
</glyph>
<glyph name="daggerdbl" format="1">
  <advance width="317"/>
  <unicode hex="2021"/>
  <outline>
    <contour>
      <point x="134" y="762" type="line"/>
      <point x="134" y="487" type="line"/>
      <point x="0" y="491" type="line"/>
      <point x="3" y="433" type="line"/>
      <point x="134" y="433" type="line"/>
      <point x="134" y="235" type="line"/>
      <point x="0" y="235" type="line"/>
      <point x="0" y="189" type="line"/>
      <point x="134" y="184" type="line"/>
      <point x="134" y="-126" type="line"/>
      <point x="184" y="-129" type="line"/>
      <point x="188" y="182" type="line"/>
      <point x="315" y="178" type="line"/>
      <point x="318" y="236" type="line"/>
      <point x="189" y="236" type="line"/>
      <point x="192" y="433" type="line"/>
      <point x="318" y="433" type="line"/>
      <point x="318" y="482" type="line"/>
      <point x="193" y="485" type="line"/>
      <point x="197" y="762" type="line"/>
    </contour>
  </outline>
</glyph>
<glyph name="ellipsis" format="1">
  <advance width="618"/>
  <unicode hex="2026"/>
  <outline>
    <contour>
      <point x="472" y="0" type="line"/>
      <point x="564" y="0" type="line"/>
      <point x="568" y="96" type="line"/>
      <point x="472" y="92" type="line"/>
    </contour>
    <contour>
      <point x="60" y="0" type="line"/>
      <point x="152" y="0" type="line"/>
      <point x="156" y="96" type="line"/>
      <point x="60" y="92" type="line"/>
    </contour>
    <contour>
      <point x="266" y="0" type="line"/>
      <point x="358" y="0" type="line"/>
      <point x="362" y="96" type="line"/>
      <point x="266" y="92" type="line"/>
    </contour>
  </outline>
</glyph>
<glyph name="second" format="1">
  <advance width="312"/>
  <unicode hex="2033"/>
  <outline>
    <contour>
      <point x="222" y="478" type="line"/>
      <point x="263" y="646" type="line"/>
      <point x="270" y="714" type="line"/>
      <point x="191" y="718" type="line"/>
      <point x="168" y="486" type="line"/>
    </contour>
    <contour>
      <point x="92" y="478" type="line"/>
      <point x="133" y="616" type="line"/>
      <point x="140" y="714" type="line"/>
      <point x="61" y="718" type="line"/>
      <point x="43" y="486" type="line"/>
    </contour>
  </outline>
</glyph>
<glyph name="colonsign" format="1">
  <advance width="314"/>
  <unicode hex="20A1"/>
  <outline>
    <contour>
      <point x="202" y="-101" type="line"/>
      <point x="209" y="20" type="line"/>
      <point x="288" y="20" type="line"/>
      <point x="288" y="187" type="line"/>
      <point x="255" y="187" type="line"/>
      <point x="236" y="174" type="line"/>
      <point x="236" y="99" type="line" smooth="yes"/>
      <point x="236" y="95"/>
      <point x="232" y="93"/>
      <point x="224" y="93" type="curve" smooth="yes"/>
      <point x="125" y="93" type="line" smooth="yes"/>
      <point x="121" y="93"/>
      <point x="119" y="95"/>
      <point x="119" y="99" type="curve" smooth="yes"/>
      <point x="119" y="567" type="line" smooth="yes"/>
      <point x="119" y="600"/>
      <point x="120" y="630"/>
      <point x="152" y="630" type="curve" smooth="yes"/>
      <point x="219" y="630" type="line" smooth="yes"/>
      <point x="227" y="630"/>
      <point x="231" y="627"/>
      <point x="231" y="621" type="curve" smooth="yes"/>
      <point x="226" y="528" type="line"/>
      <point x="272" y="528" type="line"/>
      <point x="288" y="689" type="line"/>
      <point x="297" y="794" type="line"/>
      <point x="264" y="801" type="line"/>
      <point x="245" y="695" type="line"/>
      <point x="212" y="699" type="line"/>
      <point x="225" y="804" type="line"/>
      <point x="188" y="809" type="line"/>
      <point x="171" y="704" type="line"/>
      <point x="134" y="709" type="line"/>
      <point x="130" y="709"/>
      <point x="125" y="710"/>
      <point x="121" y="710" type="curve" smooth="yes"/>
      <point x="77" y="710"/>
      <point x="55" y="690"/>
      <point x="54" y="653" type="curve" smooth="yes"/>
      <point x="34" y="62" type="line"/>
      <point x="75" y="20" type="line"/>
      <point x="94" y="20" type="line"/>
      <point x="80" y="-88" type="line"/>
      <point x="127" y="-93" type="line"/>
      <point x="138" y="20" type="line"/>
      <point x="169" y="20" type="line"/>
      <point x="154" y="-90" type="line"/>
    </contour>
  </outline>
</glyph>
<glyph name="franc" format="1">
  <advance width="266"/>
  <unicode hex="20A3"/>
  <outline>
    <contour>
      <point x="36" y="0" type="line"/>
      <point x="124" y="0" type="line"/>
      <point x="124" y="153" type="line"/>
      <point x="209" y="153" type="line"/>
      <point x="208" y="215" type="line"/>
      <point x="124" y="211" type="line"/>
      <point x="124" y="355" type="line"/>
      <point x="228" y="373" type="line"/>
      <point x="228" y="423" type="line"/>
      <point x="119" y="423" type="line"/>
      <point x="119" y="622" type="line"/>
      <point x="242" y="622" type="line"/>
      <point x="242" y="710" type="line"/>
      <point x="59" y="710" type="line"/>
      <point x="43" y="208" type="line"/>
      <point x="-15" y="206" type="line"/>
      <point x="-10" y="153" type="line"/>
      <point x="41" y="153" type="line"/>
    </contour>
  </outline>
</glyph>
<glyph name="kip" format="1">
  <advance width="286"/>
  <unicode hex="20AD"/>
  <outline>
    <contour>
      <point x="51" y="0" type="line"/>
      <point x="118" y="0" type="line"/>
      <point x="118" y="321" type="line"/>
      <point x="119" y="322" type="line"/>
      <point x="143" y="322" type="line"/>
      <point x="193" y="0" type="line"/>
      <point x="252" y="0" type="line"/>
      <point x="270" y="21" type="line"/>
      <point x="201" y="322" type="line"/>
      <point x="293" y="322" type="line"/>
      <point x="290" y="380" type="line"/>
      <point x="200" y="377" type="line"/>
      <point x="227" y="431" type="line"/>
      <point x="244" y="710" type="line"/>
      <point x="176" y="707" type="line"/>
      <point x="157" y="389" type="line"/>
      <point x="106" y="382" type="line"/>
      <point x="106" y="710" type="line"/>
      <point x="64" y="710" type="line"/>
      <point x="38" y="700" type="line"/>
      <point x="44" y="379" type="line"/>
      <point x="3" y="381" type="line"/>
      <point x="0" y="322" type="line"/>
      <point x="45" y="322" type="line"/>
    </contour>
    <contour>
      <point x="155" y="0" type="move" name="bottom"/>
    </contour>
    <contour>
      <point x="130" y="710" type="move" name="top"/>
    </contour>
  </outline>
</glyph>
<glyph name="peso" format="1">
  <advance width="297"/>
  <unicode hex="20B1"/>
  <outline>
    <contour>
      <point x="58" y="0" type="line"/>
      <point x="134" y="0" type="line"/>
      <point x="122" y="306" type="line"/>
      <point x="225" y="317" type="line"/>
      <point x="260" y="379" type="line"/>
      <point x="258" y="443" type="line"/>
      <point x="297" y="441" type="line"/>
      <point x="297" y="500" type="line"/>
      <point x="256" y="500" type="line"/>
      <point x="255" y="549" type="line"/>
      <point x="297" y="551" type="line"/>
      <point x="297" y="600" type="line"/>
      <point x="253" y="602" type="line"/>
      <point x="251" y="659" type="line" smooth="yes"/>
      <point x="249" y="704"/>
      <point x="228" y="711"/>
      <point x="173" y="712" type="curve" smooth="yes"/>
      <point x="51" y="714" type="line"/>
      <point x="52" y="600" type="line"/>
      <point x="0" y="603" type="line"/>
      <point x="0" y="541" type="line"/>
      <point x="53" y="542" type="line"/>
      <point x="53" y="497" type="line"/>
      <point x="0" y="493" type="line"/>
      <point x="0" y="431" type="line"/>
      <point x="54" y="432" type="line"/>
    </contour>
    <contour>
      <point x="120" y="382" type="line"/>
      <point x="111" y="639" type="line"/>
      <point x="111" y="648"/>
      <point x="117" y="654"/>
      <point x="126" y="655" type="curve"/>
      <point x="192" y="660" type="line"/>
      <point x="192" y="391" type="line" smooth="yes"/>
      <point x="192" y="387"/>
      <point x="190" y="385"/>
      <point x="186" y="385" type="curve"/>
    </contour>
  </outline>
</glyph>
<glyph name="liraTurkish" format="1">
  <advance width="349"/>
  <unicode hex="20BA"/>
  <outline>
    <contour>
      <point x="245" y="-2" type="line"/>
      <point x="300" y="130" type="line"/>
      <point x="320" y="250" type="line"/>
      <point x="254" y="264" type="line"/>
      <point x="235" y="157" type="line"/>
      <point x="199" y="69" type="line"/>
      <point x="116" y="77" type="line"/>
      <point x="123" y="283" type="line"/>
      <point x="276" y="361" type="line"/>
      <point x="272" y="418" type="line"/>
      <point x="125" y="347" type="line"/>
      <point x="127" y="426" type="line"/>
      <point x="273" y="494" type="line"/>
      <point x="268" y="546" type="line"/>
      <point x="130" y="490" type="line"/>
      <point x="137" y="710" type="line"/>
      <point x="40" y="710" type="line"/>
      <point x="40" y="443" type="line"/>
      <point x="-16" y="417" type="line"/>
      <point x="-10" y="349" type="line"/>
      <point x="40" y="376" type="line"/>
      <point x="40" y="297" type="line"/>
      <point x="-7" y="271" type="line"/>
      <point x="-10" y="212" type="line"/>
      <point x="40" y="239" type="line"/>
      <point x="40" y="0" type="line"/>
    </contour>
  </outline>
</glyph>
<glyph name="manat" format="1">
  <advance width="400"/>
  <unicode hex="20BC"/>
  <outline>
    <contour>
      <point x="70" y="0" type="line"/>
      <point x="130" y="0" type="line"/>
      <point x="130" y="651" type="line"/>
      <point x="287" y="642" type="line"/>
      <point x="266" y="0" type="line"/>
      <point x="350" y="0" type="line"/>
      <point x="350" y="670" type="line" smooth="yes"/>
      <point x="350" y="689"/>
      <point x="326" y="710"/>
      <point x="307" y="710" type="line" smooth="yes"/>
      <point x="106" y="710" type="line" smooth="yes"/>
      <point x="70" y="710"/>
      <point x="51" y="690"/>
      <point x="52" y="654" type="curve" smooth="yes"/>
    </contour>
    <contour>
      <point x="173" y="151" type="line"/>
      <point x="228" y="151" type="line"/>
      <point x="233" y="812" type="line"/>
      <point x="173" y="812" type="line"/>
      <point x="178" y="479" type="line"/>
    </contour>
  </outline>
</glyph>
<glyph name="arrowboth" format="1">
  <advance width="652"/>
  <unicode hex="2194"/>
  <note>
    arrowboth
  </note>
  <outline>
    <contour>
      <point x="32" y="370" type="line"/>
      <point x="32" y="414" type="line"/>
      <point x="211" y="602" type="line"/>
      <point x="246" y="567" type="line"/>
      <point x="135" y="420" type="line"/>
      <point x="513" y="408" type="line"/>
      <point x="510" y="422" type="line"/>
      <point x="398" y="559" type="line"/>
      <point x="438" y="594" type="line"/>
      <point x="620" y="400" type="line"/>
      <point x="612" y="368" type="line"/>
      <point x="446" y="164" type="line"/>
      <point x="383" y="206" type="line"/>
      <point x="524" y="344" type="line"/>
      <point x="522" y="355" type="line"/>
      <point x="125" y="355" type="line"/>
      <point x="253" y="226" type="line"/>
      <point x="253" y="205" type="line"/>
      <point x="208" y="172" type="line"/>
    </contour>
  </outline>
</glyph>
<glyph name="minus" format="1">
  <advance width="339"/>
  <unicode hex="2212"/>
  <outline>
    <contour>
      <point x="13" y="330" type="line"/>
      <point x="328" y="330" type="line"/>
      <point x="328" y="379" type="line"/>
      <point x="10" y="388" type="line"/>
    </contour>
  </outline>
</glyph>
<glyph name="uni2215" format="1">
  <advance width="395"/>
  <unicode hex="2215"/>
  <outline>
    <contour>
      <point x="39" y="-2" type="line"/>
      <point x="395" y="679" type="line"/>
      <point x="361" y="707" type="line"/>
      <point x="0" y="33" type="line"/>
    </contour>
  </outline>
</glyph>
<glyph name="lessequal" format="1">
  <advance width="339"/>
  <unicode hex="2264"/>
  <outline>
    <contour>
      <point x="35" y="439" type="line"/>
      <point x="31" y="373" type="line"/>
      <point x="262" y="233" type="line"/>
      <point x="307" y="296" type="line"/>
      <point x="103" y="405" type="line"/>
      <point x="103" y="409" type="line"/>
      <point x="309" y="533" type="line"/>
      <point x="273" y="591" type="line"/>
    </contour>
    <contour>
      <point x="328" y="120" type="line"/>
      <point x="328" y="169" type="line"/>
      <point x="10" y="178" type="line"/>
      <point x="13" y="120" type="line"/>
    </contour>
  </outline>
</glyph>
<glyph name="greaterequal" format="1">
  <advance width="339"/>
  <unicode hex="2265"/>
  <outline>
    <contour>
      <point x="42" y="302" type="line"/>
      <point x="87" y="233" type="line"/>
      <point x="308" y="373" type="line"/>
      <point x="304" y="439" type="line"/>
      <point x="66" y="591" type="line"/>
      <point x="30" y="533" type="line"/>
      <point x="236" y="405" type="line"/>
      <point x="236" y="401" type="line"/>
    </contour>
    <contour>
      <point x="328" y="120" type="line"/>
      <point x="328" y="169" type="line"/>
      <point x="10" y="178" type="line"/>
      <point x="13" y="120" type="line"/>
    </contour>
  </outline>
</glyph>
<glyph name="Black_Right-Pointing_Pointer" format="1">
  <advance width="600"/>
  <unicode hex="25BA"/>
  <note>
    Black_Right-Pointing_Pointer
  </note>
  <outline>
    <contour>
      <point x="98" y="42" type="line"/>
      <point x="548" y="310" type="line"/>
      <point x="572" y="356" type="line"/>
      <point x="111" y="665" type="line"/>
      <point x="84" y="650" type="line"/>
      <point x="70" y="59" type="line"/>
    </contour>
  </outline>
</glyph>
<glyph name="Black_Down_Pointing_Triangle" format="1">
  <advance width="683"/>
  <unicode hex="25BC"/>
  <note>
    triagdn
  </note>
  <outline>
    <contour>
      <point x="339" y="103" type="line"/>
      <point x="385" y="127" type="line"/>
      <point x="653" y="587" type="line"/>
      <point x="636" y="615" type="line"/>
      <point x="45" y="601" type="line"/>
      <point x="30" y="574" type="line"/>
    </contour>
  </outline>
</glyph>
<glyph name="White_Diamond" format="1">
  <advance width="680"/>
  <unicode hex="25C7"/>
  <note>
    uni25C7
  </note>
  <outline>
    <contour>
      <point x="348" y="34" type="line"/>
      <point x="635" y="327" type="line"/>
      <point x="628" y="368" type="line"/>
      <point x="372" y="654" type="line"/>
      <point x="331" y="667" type="line"/>
      <point x="45" y="371" type="line"/>
      <point x="54" y="328" type="line"/>
      <point x="307" y="46" type="line"/>
    </contour>
    <contour>
      <point x="347" y="106" type="line"/>
      <point x="315" y="117" type="line"/>
      <point x="117" y="337" type="line"/>
      <point x="112" y="369" type="line"/>
      <point x="334" y="595" type="line"/>
      <point x="366" y="585" type="line"/>
      <point x="561" y="368" type="line"/>
      <point x="568" y="334" type="line"/>
    </contour>
  </outline>
</glyph>
<glyph name="Black_Right_Pointing_Index" format="1">
  <advance width="861"/>
  <unicode hex="261B"/>
  <note>
    uni261E
  </note>
  <outline>
    <contour>
      <point x="348" y="204" type="curve"/>
      <point x="367" y="257" type="line"/>
      <point x="385" y="254" type="line"/>
      <point x="413" y="317" type="line"/>
      <point x="435" y="316" type="line"/>
      <point x="456" y="370" type="line"/>
      <point x="504" y="371"/>
      <point x="566" y="374"/>
      <point x="626" y="380" type="curve"/>
      <point x="667" y="388"/>
      <point x="778" y="371"/>
      <point x="825" y="405" type="curve"/>
      <point x="819" y="448" type="line"/>
      <point x="645" y="457" type="line"/>
      <point x="559" y="446"/>
      <point x="470" y="455"/>
      <point x="429" y="462" type="curve"/>
      <point x="395" y="380" type="line"/>
      <point x="291" y="330" type="line"/>
      <point x="286" y="341" type="line"/>
      <point x="360" y="375"/>
      <point x="386" y="405"/>
      <point x="406" y="465" type="curve"/>
      <point x="449" y="488"/>
      <point x="487" y="548"/>
      <point x="491" y="600" type="curve"/>
      <point x="465" y="636" type="line"/>
      <point x="416" y="634" type="line"/>
      <point x="410" y="597" type="line"/>
      <point x="396" y="546"/>
      <point x="330" y="514"/>
      <point x="275" y="507" type="curve"/>
      <point x="216" y="486"/>
      <point x="183" y="468"/>
      <point x="136" y="442" type="curve"/>
      <point x="158" y="370"/>
      <point x="184" y="307"/>
      <point x="211" y="263" type="curve"/>
      <point x="247" y="232"/>
      <point x="293" y="217"/>
    </contour>
    <contour>
      <point x="78" y="173" type="line"/>
      <point x="228" y="221" type="line"/>
      <point x="172" y="246"/>
      <point x="157" y="300"/>
      <point x="126" y="442" type="curve"/>
      <point x="63" y="451" type="line"/>
      <point x="30" y="417" type="line"/>
      <point x="43" y="201" type="line"/>
    </contour>
    <contour>
      <point x="486" y="171" type="line"/>
      <point x="537" y="224" type="line"/>
      <point x="556" y="293" type="line"/>
      <point x="576" y="303" type="line"/>
      <point x="590" y="357" type="line"/>
      <point x="469" y="355" type="line"/>
      <point x="452" y="316" type="line"/>
      <point x="520" y="313" type="line"/>
      <point x="520" y="299" type="line"/>
      <point x="426" y="298" type="line"/>
      <point x="411" y="251" type="line"/>
      <point x="506" y="242" type="line"/>
      <point x="505" y="229" type="line"/>
      <point x="377" y="236" type="line"/>
      <point x="365" y="200" type="line"/>
    </contour>
  </outline>
</glyph>
<glyph name="fi" format="1">
  <advance width="354"/>
  <unicode hex="FB01"/>
  <outline>
    <contour>
      <point x="109" y="645" type="line"/>
      <point x="235" y="650" type="line"/>
      <point x="250" y="622" type="line"/>
      <point x="302" y="626" type="line"/>
      <point x="313" y="710" type="line"/>
      <point x="85" y="710" type="line" smooth="yes"/>
      <point x="59" y="710"/>
      <point x="42" y="692"/>
      <point x="42" y="661" type="curve" smooth="yes"/>
      <point x="43" y="582" type="line"/>
      <point x="3" y="582" type="line"/>
      <point x="3" y="522" type="line"/>
      <point x="44" y="522" type="line"/>
      <point x="42" y="0" type="line"/>
      <point x="113" y="0" type="line"/>
      <point x="108" y="522" type="line"/>
      <point x="195" y="529" type="line"/>
      <point x="195" y="582" type="line"/>
      <point x="107" y="582" type="line"/>
    </contour>
    <contour>
      <point x="241" y="-24" type="line"/>
      <point x="316" y="-24" type="line"/>
      <point x="317" y="21" type="line"/>
      <point x="303" y="51" type="line"/>
      <point x="311" y="582" type="line"/>
      <point x="237" y="582" type="line"/>
    </contour>
  </outline>
</glyph>
<glyph name="fl" format="1">
  <advance width="352"/>
  <unicode hex="FB02"/>
  <outline>
    <contour>
      <point x="42" y="0" type="line"/>
      <point x="113" y="0" type="line"/>
      <point x="108" y="522" type="line"/>
      <point x="197" y="529" type="line"/>
      <point x="197" y="582" type="line"/>
      <point x="107" y="582" type="line"/>
      <point x="109" y="645" type="line"/>
      <point x="242" y="656" type="line"/>
      <point x="242" y="655" type="line"/>
      <point x="236" y="0" type="line"/>
      <point x="325" y="0" type="line"/>
      <point x="324" y="42" type="line"/>
      <point x="306" y="53" type="line"/>
      <point x="299" y="710" type="line"/>
      <point x="85" y="710" type="line" smooth="yes"/>
      <point x="59" y="710"/>
      <point x="42" y="692"/>
      <point x="42" y="661" type="curve" smooth="yes"/>
      <point x="43" y="582" type="line"/>
      <point x="3" y="582" type="line"/>
      <point x="3" y="522" type="line"/>
      <point x="44" y="522" type="line"/>
    </contour>
  </outline>
</glyph>
<glyph name="AE.alt" format="1">
  <advance width="488"/>
  <outline>
    <contour>
      <point x="225" y="0" type="line"/>
      <point x="439" y="0" type="line"/>
      <point x="439" y="83" type="line"/>
      <point x="297" y="75" type="line"/>
      <point x="297" y="362" type="line"/>
      <point x="439" y="356" type="line"/>
      <point x="439" y="404" type="line"/>
      <point x="280" y="427" type="line"/>
      <point x="280" y="654" type="line"/>
      <point x="439" y="648" type="line"/>
      <point x="439" y="710" type="line"/>
      <point x="110" y="710" type="line"/>
      <point x="25" y="0" type="line"/>
      <point x="87" y="0" type="line"/>
      <point x="139" y="228" type="line"/>
      <point x="225" y="268" type="line"/>
    </contour>
    <contour>
      <point x="196" y="311" type="line"/>
      <point x="196" y="307"/>
      <point x="194" y="306"/>
      <point x="190" y="305" type="curve"/>
      <point x="157" y="305" type="line"/>
      <point x="153" y="305"/>
      <point x="151" y="307"/>
      <point x="151" y="310" type="curve"/>
      <point x="151" y="648" type="line"/>
      <point x="151" y="653"/>
      <point x="153" y="657"/>
      <point x="157" y="658" type="curve"/>
      <point x="200" y="668" type="line"/>
      <point x="204" y="668"/>
      <point x="206" y="666"/>
      <point x="206" y="662" type="curve"/>
    </contour>
  </outline>
</glyph>
<glyph name="Aringacute.alt" format="1">
  <advance width="296"/>
  <outline>
    <contour>
      <point x="224" y="845" type="line"/>
      <point x="215" y="900" type="line"/>
      <point x="82" y="861" type="line"/>
      <point x="98" y="823" type="line"/>
    </contour>
    <contour>
      <point x="217" y="710" type="line"/>
      <point x="217" y="810" type="line"/>
      <point x="78" y="810" type="line"/>
      <point x="78" y="710" type="line"/>
      <point x="70" y="710" type="line"/>
      <point x="25" y="0" type="line"/>
      <point x="87" y="0" type="line"/>
      <point x="109" y="228" type="line"/>
      <point x="189" y="266" type="line"/>
      <point x="225" y="0" type="line"/>
      <point x="269" y="0" type="line"/>
      <point x="228" y="710" type="line"/>
    </contour>
    <contour>
      <point x="175" y="712"/>
      <point x="173" y="710"/>
      <point x="168" y="710" type="curve"/>
      <point x="124" y="710" type="line" smooth="yes"/>
      <point x="122" y="710"/>
      <point x="121" y="711"/>
      <point x="121" y="714" type="curve" smooth="yes"/>
      <point x="121" y="780" type="line" smooth="yes"/>
      <point x="121" y="782"/>
      <point x="124" y="783"/>
      <point x="129" y="783" type="curve"/>
      <point x="169" y="778" type="line"/>
      <point x="173" y="776"/>
      <point x="175" y="774"/>
      <point x="175" y="772" type="curve" smooth="yes"/>
      <point x="175" y="716" type="line" smooth="yes"/>
    </contour>
    <contour>
      <point x="170" y="303" type="line"/>
      <point x="170" y="299"/>
      <point x="168" y="298"/>
      <point x="164" y="297" type="curve"/>
      <point x="127" y="291" type="line"/>
      <point x="123" y="291"/>
      <point x="121" y="293"/>
      <point x="121" y="296" type="curve"/>
      <point x="121" y="648" type="line"/>
      <point x="121" y="653"/>
      <point x="123" y="657"/>
      <point x="127" y="658" type="curve"/>
      <point x="170" y="668" type="line"/>
      <point x="174" y="668"/>
      <point x="176" y="666"/>
      <point x="176" y="662" type="curve"/>
    </contour>
  </outline>
</glyph>
<glyph name="Eth.alt" format="1">
  <advance width="315"/>
  <outline>
    <contour>
      <point x="177" y="338" type="line"/>
      <point x="177" y="387" type="line"/>
      <point x="8" y="396" type="line"/>
      <point x="11" y="338" type="line"/>
    </contour>
    <component base="D.alt"/>
  </outline>
</glyph>
<glyph name="F.alt" format="1">
  <advance width="286"/>
  <outline>
    <contour>
      <point x="44" y="-20" type="line"/>
      <point x="126" y="-20" type="line"/>
      <point x="106" y="372" type="line"/>
      <point x="258" y="389" type="line"/>
      <point x="258" y="447" type="line"/>
      <point x="123" y="447" type="line"/>
      <point x="123" y="616" type="line"/>
      <point x="258" y="628" type="line"/>
      <point x="258" y="690" type="line"/>
      <point x="44" y="710" type="line"/>
    </contour>
  </outline>
</glyph>
<glyph name="F_F" format="1">
  <advance width="532"/>
  <outline>
    <contour>
      <point x="121" y="0" type="line"/>
      <point x="121" y="355" type="line"/>
      <point x="258" y="373" type="line"/>
      <point x="258" y="423" type="line"/>
      <point x="116" y="423" type="line"/>
      <point x="116" y="611" type="line"/>
      <point x="325" y="611" type="line"/>
      <point x="305" y="0" type="line"/>
      <point x="390" y="0" type="line"/>
      <point x="390" y="355" type="line"/>
      <point x="494" y="373" type="line"/>
      <point x="494" y="423" type="line"/>
      <point x="385" y="423" type="line"/>
      <point x="385" y="625" type="line"/>
      <point x="508" y="625" type="line"/>
      <point x="508" y="710" type="line"/>
      <point x="325" y="710" type="line"/>
      <point x="324" y="677" type="line"/>
      <point x="59" y="677" type="line"/>
      <point x="36" y="0" type="line"/>
    </contour>
  </outline>
</glyph>
<glyph name="Hbar.alt" format="1">
  <advance width="313"/>
  <outline>
    <contour>
      <point x="5" y="534" type="line"/>
      <point x="319" y="542" type="line"/>
      <point x="319" y="592" type="line"/>
      <point x="2" y="592" type="line"/>
    </contour>
    <component base="H.alt"/>
  </outline>
</glyph>
<glyph name="I.alt" format="1">
  <advance width="157"/>
  <outline>
    <contour>
      <point x="42" y="20" type="line"/>
      <point x="126" y="20" type="line"/>
      <point x="105" y="710" type="line"/>
      <point x="42" y="710" type="line"/>
    </contour>
    <contour>
      <point x="85" y="0" type="move" name="bottom"/>
    </contour>
    <contour>
      <point x="111" y="20" type="move" name="ogonek"/>
    </contour>
    <contour>
      <point x="75" y="710" type="move" name="top"/>
    </contour>
    <contour>
      <point x="20" y="710" type="move" name="topleft"/>
    </contour>
  </outline>
</glyph>
<glyph name="IJ.alt" format="1">
  <advance width="434"/>
  <outline>
    <contour>
      <point x="42" y="20" type="line"/>
      <point x="126" y="20" type="line"/>
      <point x="105" y="710" type="line"/>
      <point x="42" y="710" type="line"/>
    </contour>
    <contour>
      <point x="361" y="710" type="line"/>
      <point x="398" y="710" type="line"/>
      <point x="379" y="0" type="line"/>
      <point x="243" y="0" type="line" smooth="yes"/>
      <point x="224" y="0"/>
      <point x="201" y="19"/>
      <point x="200" y="38" type="curve" smooth="yes"/>
      <point x="192" y="172" type="line"/>
      <point x="241" y="172" type="line"/>
      <point x="246" y="94" type="line"/>
      <point x="321" y="89" type="line"/>
      <point x="321" y="696" type="line"/>
    </contour>
  </outline>
</glyph>
<glyph name="K.alt" format="1">
  <advance width="286"/>
  <outline>
    <contour>
      <point x="51" y="0" type="line"/>
      <point x="118" y="0" type="line"/>
      <point x="118" y="321" type="line"/>
      <point x="140" y="338" type="line"/>
      <point x="193" y="0" type="line"/>
      <point x="252" y="0" type="line"/>
      <point x="270" y="21" type="line"/>
      <point x="190" y="369" type="line"/>
      <point x="231" y="401" type="line"/>
      <point x="252" y="710" type="line"/>
      <point x="166" y="687" type="line"/>
      <point x="177" y="432" type="line"/>
      <point x="106" y="372" type="line"/>
      <point x="106" y="710" type="line"/>
      <point x="64" y="710" type="line"/>
      <point x="38" y="700" type="line"/>
    </contour>
    <contour>
      <point x="155" y="0" type="move" name="bottom"/>
    </contour>
    <contour>
      <point x="130" y="710" type="move" name="top"/>
    </contour>
  </outline>
</glyph>
<glyph name="O.alt" format="1">
  <advance width="292"/>
  <outline>
    <contour>
      <point x="112" y="0" type="curve"/>
      <point x="245" y="0" type="line"/>
      <point x="252" y="662" type="line" smooth="yes"/>
      <point x="252" y="689"/>
      <point x="228" y="710"/>
      <point x="191" y="710" type="curve" smooth="yes"/>
      <point x="110" y="710"/>
      <point x="68" y="702"/>
      <point x="39" y="686" type="curve"/>
      <point x="39" y="56" type="line" smooth="yes"/>
      <point x="39" y="17"/>
      <point x="56" y="0"/>
    </contour>
    <contour>
      <point x="174" y="57" type="line"/>
      <point x="103" y="63" type="line"/>
      <point x="109" y="640" type="line"/>
      <point x="118" y="646" type="line"/>
      <point x="180" y="643" type="line"/>
      <point x="186" y="642"/>
      <point x="189" y="640"/>
      <point x="189" y="637" type="curve" smooth="yes"/>
      <point x="183" y="66" type="line"/>
    </contour>
    <contour>
      <point x="144" y="710" type="move" name="top"/>
    </contour>
    <contour>
      <point x="149" y="0" type="move" name="bottom"/>
    </contour>
  </outline>
</glyph>
<glyph name="O_S" format="1">
  <advance width="461"/>
  <outline>
    <contour>
      <point x="93" y="710" type="line"/>
      <point x="50" y="678" type="line"/>
      <point x="50" y="182" type="line"/>
      <point x="109" y="140" type="line"/>
      <point x="155" y="140" type="line"/>
      <point x="218" y="176" type="line"/>
      <point x="218" y="682" type="line"/>
      <point x="178" y="710" type="line"/>
    </contour>
    <contour>
      <point x="154" y="211" type="line"/>
      <point x="154" y="207"/>
      <point x="151" y="205"/>
      <point x="145" y="205" type="curve"/>
      <point x="123" y="205" type="line"/>
      <point x="117" y="205"/>
      <point x="114" y="207"/>
      <point x="114" y="211" type="curve"/>
      <point x="114" y="654" type="line"/>
      <point x="114" y="660"/>
      <point x="117" y="663"/>
      <point x="123" y="663" type="curve"/>
      <point x="157" y="663" type="line"/>
      <point x="163" y="663"/>
      <point x="166" y="660"/>
      <point x="166" y="654" type="curve"/>
    </contour>
    <contour>
      <point x="324" y="647" type="line"/>
      <point x="421" y="666" type="line"/>
      <point x="421" y="710" type="line"/>
      <point x="304" y="710" type="line"/>
      <point x="283" y="710"/>
      <point x="264" y="684"/>
      <point x="264" y="663" type="curve"/>
      <point x="264" y="439" type="line"/>
      <point x="344" y="409" type="line"/>
      <point x="358" y="203" type="line"/>
      <point x="264" y="203" type="line"/>
      <point x="264" y="140" type="line"/>
      <point x="357" y="140" type="line"/>
      <point x="386" y="140"/>
      <point x="421" y="172"/>
      <point x="421" y="200" type="curve"/>
      <point x="421" y="455" type="line"/>
      <point x="329" y="488" type="line"/>
    </contour>
    <contour>
      <point x="51" y="84" type="line"/>
      <point x="51" y="0" type="line"/>
      <point x="406" y="0" type="line"/>
      <point x="414" y="71" type="line"/>
    </contour>
  </outline>
</glyph>
<glyph name="Oslashacute.alt" format="1">
  <advance width="303"/>
  <outline>
    <contour>
      <point x="243" y="0"/>
      <point x="257" y="14"/>
      <point x="257" y="37" type="curve"/>
      <point x="257" y="661" type="line"/>
      <point x="287" y="776" type="line"/>
      <point x="251" y="789" type="line"/>
      <point x="226" y="699" type="line"/>
      <point x="202" y="706"/>
      <point x="165" y="710"/>
      <point x="105" y="710" type="curve" smooth="yes"/>
      <point x="68" y="710"/>
      <point x="44" y="696"/>
      <point x="44" y="685" type="curve" smooth="yes"/>
      <point x="53" y="58" type="line"/>
      <point x="18" y="-72" type="line"/>
      <point x="61" y="-88" type="line"/>
      <point x="84" y="0" type="line"/>
      <point x="203" y="0" type="line" smooth="yes"/>
    </contour>
    <contour>
      <point x="99" y="646"/>
      <point x="102" y="648"/>
      <point x="108" y="649" type="curve"/>
      <point x="181" y="639" type="line"/>
      <point x="190" y="633" type="line"/>
      <point x="190" y="568" type="line"/>
      <point x="111" y="272" type="line"/>
      <point x="99" y="643" type="line" smooth="yes"/>
    </contour>
    <contour>
      <point x="116" y="122" type="line"/>
      <point x="193" y="419" type="line"/>
      <point x="200" y="77" type="line"/>
      <point x="127" y="52" type="line"/>
      <point x="118" y="61" type="line"/>
    </contour>
    <component base="acute" xOffset="75"/>
  </outline>
</glyph>
<glyph name="P.alt" format="1">
  <advance width="278"/>
  <outline>
    <contour>
      <point x="28" y="0" type="line"/>
      <point x="97" y="0" type="line"/>
      <point x="105" y="306" type="line"/>
      <point x="215" y="317" type="line"/>
      <point x="250" y="379" type="line"/>
      <point x="239" y="689" type="line" smooth="yes"/>
      <point x="239" y="704"/>
      <point x="218" y="710"/>
      <point x="203" y="710" type="curve" smooth="yes"/>
      <point x="160" y="710" type="line" smooth="yes"/>
      <point x="120" y="710"/>
      <point x="51" y="701"/>
      <point x="51" y="687" type="curve"/>
    </contour>
    <contour>
      <point x="111" y="382" type="line"/>
      <point x="111" y="658" type="line"/>
      <point x="167" y="665" type="line"/>
      <point x="182" y="650" type="line"/>
      <point x="182" y="391" type="line" smooth="yes"/>
      <point x="182" y="387"/>
      <point x="180" y="385"/>
      <point x="176" y="385" type="curve"/>
    </contour>
  </outline>
</glyph>
<glyph name="R.alt" format="1">
  <advance width="301"/>
  <outline>
    <contour>
      <point x="40" y="0" type="line"/>
      <point x="86" y="0" type="line"/>
      <point x="107" y="306" type="line"/>
      <point x="158" y="311" type="line"/>
      <point x="209" y="0" type="line"/>
      <point x="268" y="0" type="line"/>
      <point x="287" y="22" type="line"/>
      <point x="207" y="320" type="line"/>
      <point x="252" y="379" type="line"/>
      <point x="242" y="667" type="line"/>
      <point x="241" y="692"/>
      <point x="226" y="710"/>
      <point x="205" y="710" type="curve"/>
      <point x="162" y="710" type="line"/>
      <point x="122" y="710"/>
      <point x="40" y="707"/>
      <point x="40" y="699" type="curve"/>
    </contour>
    <contour>
      <point x="100" y="648" type="line"/>
      <point x="169" y="655" type="line"/>
      <point x="184" y="640" type="line"/>
      <point x="184" y="391" type="line"/>
      <point x="184" y="387"/>
      <point x="182" y="385"/>
      <point x="178" y="385" type="curve"/>
      <point x="103" y="381" type="line"/>
    </contour>
    <contour>
      <point x="147" y="710" type="move" name="top"/>
    </contour>
    <contour>
      <point x="152" y="0" type="move" name="bottom"/>
    </contour>
  </outline>
</glyph>
<glyph name="S.alt" format="1">
  <advance width="273"/>
  <outline>
    <contour>
      <point x="194" y="569" type="line"/>
      <point x="231" y="569" type="line"/>
      <point x="236" y="710" type="line"/>
      <point x="79" y="710" type="line"/>
      <point x="39" y="686" type="line"/>
      <point x="39" y="364" type="line"/>
      <point x="174" y="334" type="line"/>
      <point x="158" y="68" type="line"/>
      <point x="88" y="84" type="line"/>
      <point x="88" y="171" type="line"/>
      <point x="30" y="171" type="line"/>
      <point x="39" y="0" type="line"/>
      <point x="156" y="0" type="line" smooth="yes"/>
      <point x="184" y="0"/>
      <point x="230" y="32"/>
      <point x="230" y="60" type="curve"/>
      <point x="244" y="392" type="line"/>
      <point x="99" y="418" type="line"/>
      <point x="114" y="640" type="line"/>
      <point x="174" y="647" type="line"/>
    </contour>
    <contour>
      <point x="145" y="710" type="move" name="top"/>
    </contour>
    <contour>
      <point x="134" y="0" type="move" name="bottom"/>
    </contour>
  </outline>
</glyph>
<glyph name="T_O" format="1">
  <advance width="454"/>
  <outline>
    <contour>
      <point x="79" y="140" type="line"/>
      <point x="140" y="140" type="line"/>
      <point x="140" y="653" type="line"/>
      <point x="200" y="653" type="line"/>
      <point x="200" y="710" type="line"/>
      <point x="35" y="710" type="line"/>
      <point x="25" y="672" type="line"/>
      <point x="79" y="660" type="line"/>
    </contour>
    <contour>
      <point x="38" y="0" type="line"/>
      <point x="404" y="13" type="line"/>
      <point x="396" y="84" type="line"/>
      <point x="38" y="84" type="line"/>
    </contour>
    <contour>
      <point x="289" y="140" type="line"/>
      <point x="335" y="140" type="line"/>
      <point x="398" y="176" type="line"/>
      <point x="398" y="682" type="line"/>
      <point x="358" y="710" type="line"/>
      <point x="273" y="710" type="line"/>
      <point x="230" y="678" type="line"/>
      <point x="230" y="182" type="line"/>
    </contour>
    <contour>
      <point x="303" y="205" type="line"/>
      <point x="297" y="205"/>
      <point x="294" y="207"/>
      <point x="294" y="211" type="curve"/>
      <point x="294" y="654" type="line"/>
      <point x="294" y="660"/>
      <point x="297" y="663"/>
      <point x="303" y="663" type="curve"/>
      <point x="337" y="663" type="line"/>
      <point x="343" y="663"/>
      <point x="346" y="660"/>
      <point x="346" y="654" type="curve"/>
      <point x="334" y="211" type="line"/>
      <point x="334" y="207"/>
      <point x="331" y="205"/>
      <point x="325" y="205" type="curve"/>
    </contour>
  </outline>
</glyph>
<glyph name="Y.alt" format="1">
  <advance width="257"/>
  <outline>
    <contour>
      <point x="105" y="0" type="line"/>
      <point x="182" y="0" type="line"/>
      <point x="165" y="369" type="line"/>
      <point x="201" y="431" type="line"/>
      <point x="245" y="710" type="line"/>
      <point x="175" y="710" type="line"/>
      <point x="145" y="415" type="line"/>
      <point x="137" y="413" type="line"/>
      <point x="103" y="700" type="line"/>
      <point x="12" y="700" type="line"/>
      <point x="105" y="374" type="line"/>
    </contour>
    <contour>
      <point x="143" y="0" type="move" name="bottom"/>
    </contour>
    <contour>
      <point x="127" y="710" type="move" name="top"/>
    </contour>
  </outline>
</glyph>
<glyph name="Y.loclGUA" format="1">
  <advance width="235"/>
  <outline>
    <contour>
      <point x="31" y="0" type="line"/>
      <point x="211" y="0" type="line"/>
      <point x="211" y="710" type="line"/>
      <point x="145" y="710" type="line"/>
      <point x="145" y="388" type="line"/>
      <point x="96" y="391" type="line"/>
      <point x="83" y="690" type="line"/>
      <point x="24" y="690" type="line"/>
      <point x="24" y="338" type="line"/>
      <point x="138" y="323" type="line"/>
      <point x="153" y="57" type="line"/>
      <point x="41" y="72" type="line"/>
    </contour>
    <contour>
      <point x="116" y="710" type="move" name="top"/>
    </contour>
    <contour>
      <point x="112" y="0" type="move" name="bottom"/>
    </contour>
  </outline>
</glyph>
<glyph name="YloclGUA.alt" format="1">
  <advance width="252"/>
  <outline>
    <contour>
      <point x="65" y="0" type="line"/>
      <point x="205" y="0" type="line"/>
      <point x="225" y="690" type="line"/>
      <point x="175" y="690" type="line"/>
      <point x="145" y="385" type="line"/>
      <point x="117" y="383" type="line"/>
      <point x="83" y="710" type="line"/>
      <point x="12" y="710" type="line"/>
      <point x="75" y="324" type="line"/>
      <point x="159" y="312" type="line"/>
      <point x="159" y="55" type="line"/>
      <point x="55" y="36" type="line"/>
    </contour>
    <contour>
      <point x="124" y="710" type="move" name="top"/>
    </contour>
    <contour>
      <point x="122" y="0" type="move" name="bottom"/>
    </contour>
  </outline>
</glyph>
<glyph name=".notdef" format="1">
  <advance width="339"/>
  <outline>
    <contour>
      <point x="290" y="11" type="line"/>
      <point x="267" y="710" type="line"/>
      <point x="50" y="701" type="line"/>
      <point x="50" y="0" type="line"/>
      <point x="239" y="0" type="line"/>
    </contour>
    <contour>
      <point x="164" y="411" type="line"/>
      <point x="101" y="676" type="line"/>
      <point x="225" y="676" type="line"/>
      <point x="233" y="672" type="line"/>
    </contour>
    <contour>
      <point x="88" y="124" type="line"/>
      <point x="88" y="657" type="line"/>
      <point x="152" y="368" type="line"/>
    </contour>
    <contour>
      <point x="237" y="618" type="line"/>
      <point x="237" y="106" type="line"/>
      <point x="174" y="367" type="line"/>
    </contour>
    <contour>
      <point x="226" y="39" type="line"/>
      <point x="101" y="39" type="line" smooth="yes"/>
      <point x="98" y="39"/>
      <point x="95" y="40"/>
      <point x="93" y="41" type="curve"/>
      <point x="163" y="321" type="line"/>
    </contour>
  </outline>
</glyph>
<glyph name="acute.loclPLK" format="1">
  <advance width="94"/>
  <outline>
    <contour>
      <point x="41" y="638" type="line"/>
      <point x="94" y="754" type="line"/>
      <point x="31" y="774" type="line"/>
      <point x="0" y="646" type="line"/>
    </contour>
    <contour>
      <point x="28" y="582" type="move" name="_top"/>
    </contour>
    <contour>
      <point x="47" y="772" type="move" name="top"/>
    </contour>
  </outline>
</glyph>
<glyph name="b.alt" format="1">
  <advance width="288"/>
  <outline>
    <contour>
      <point x="203" y="582" type="line"/>
      <point x="110" y="582" type="line"/>
      <point x="111" y="710" type="line"/>
      <point x="30" y="710" type="line"/>
      <point x="30" y="675" type="line"/>
      <point x="45" y="662" type="line"/>
      <point x="45" y="42" type="line"/>
      <point x="104" y="0" type="line"/>
      <point x="180" y="0" type="line"/>
      <point x="243" y="36" type="line"/>
      <point x="243" y="554" type="line"/>
    </contour>
    <contour>
      <point x="182" y="72" type="line"/>
      <point x="182" y="66"/>
      <point x="182" y="63"/>
      <point x="173" y="63" type="curve" smooth="yes"/>
      <point x="121" y="63" type="line" smooth="yes"/>
      <point x="116" y="63"/>
      <point x="112" y="66"/>
      <point x="112" y="72" type="curve" smooth="yes"/>
      <point x="112" y="524" type="line" smooth="yes"/>
      <point x="112" y="528"/>
      <point x="112" y="530"/>
      <point x="121" y="530" type="curve" smooth="yes"/>
      <point x="163" y="530" type="line" smooth="yes"/>
      <point x="172" y="530"/>
      <point x="172" y="528"/>
      <point x="172" y="524" type="curve" smooth="yes"/>
    </contour>
  </outline>
</glyph>
<glyph name="baraccentmedium" format="1">
  <advance width="363"/>
  <outline>
    <contour>
      <point x="15" y="338" type="line"/>
      <point x="351" y="338" type="line"/>
      <point x="351" y="387" type="line"/>
      <point x="12" y="396" type="line"/>
    </contour>
    <contour>
      <point x="174" y="0" type="move" name="bottom"/>
    </contour>
    <contour>
      <point x="180" y="710" type="move" name="top"/>
    </contour>
  </outline>
</glyph>
<glyph name="cedillacomb.case" format="1">
  <advance width="211"/>
  <outline>
    <contour>
      <point x="100" y="-207" type="line" smooth="yes"/>
      <point x="151" y="-214"/>
      <point x="176" y="-191"/>
      <point x="185" y="-155" type="curve" smooth="yes"/>
      <point x="200" y="-90" type="line"/>
      <point x="195" y="-62" type="line"/>
      <point x="99" y="-45" type="line"/>
      <point x="146" y="22" type="line"/>
      <point x="101" y="53" type="line"/>
      <point x="29" y="-79" type="line"/>
      <point x="131" y="-110" type="line"/>
      <point x="128" y="-150" type="line"/>
      <point x="10" y="-145" type="line"/>
      <point x="0" y="-193" type="line"/>
    </contour>
    <contour>
      <point x="112" y="0" type="move" name="_bottom"/>
    </contour>
    <contour>
      <point x="106" y="-226" type="move" name="bottom"/>
    </contour>
  </outline>
</glyph>
<glyph name="circumflexcomb.case" format="1">
  <advance width="188"/>
  <outline>
    <contour>
      <point x="161" y="623" type="line"/>
      <point x="188" y="652" type="line"/>
      <point x="114" y="731" type="line"/>
      <point x="74" y="729" type="line"/>
      <point x="0" y="652" type="line"/>
      <point x="29" y="625" type="line"/>
      <point x="94" y="672" type="line"/>
    </contour>
    <contour>
      <point x="91" y="582" type="move" name="_top"/>
    </contour>
    <contour>
      <point x="94" y="700" type="move" name="top"/>
    </contour>
  </outline>
</glyph>
<glyph name="dotaccentcomb.case" format="1">
  <advance width="93"/>
  <outline>
    <contour>
      <point x="4" y="638" type="line"/>
      <point x="93" y="641" type="line"/>
      <point x="93" y="736" type="line"/>
      <point x="0" y="736" type="line"/>
    </contour>
    <contour>
      <point x="47" y="582" type="move" name="_top"/>
    </contour>
    <contour>
      <point x="47" y="710" type="move" name="top"/>
    </contour>
  </outline>
</glyph>
<glyph name="dotlessI" format="1">
  <advance width="157"/>
  <outline>
    <contour>
      <point x="42" y="0" type="line"/>
      <point x="126" y="0" type="line"/>
      <point x="105" y="710" type="line"/>
      <point x="42" y="710" type="line"/>
    </contour>
    <contour>
      <point x="72" y="710" type="move" name="top"/>
    </contour>
    <contour>
      <point x="84" y="0" type="move" name="bottom"/>
    </contour>
  </outline>
</glyph>
<glyph name="dotlessi.alt" format="1">
  <advance width="167"/>
  <outline>
    <contour>
      <point x="50" y="0" type="line"/>
      <point x="129" y="0" type="line"/>
      <point x="113" y="582" type="line"/>
      <point x="50" y="582" type="line"/>
    </contour>
    <contour>
      <point x="81" y="582" type="move" name="top"/>
    </contour>
    <contour>
      <point x="47" y="0" type="move" name="bottom"/>
    </contour>
  </outline>
</glyph>
<glyph name="e.alt" format="1">
  <advance width="281"/>
  <outline>
    <contour>
      <point x="229" y="57" type="line"/>
      <point x="132" y="57" type="line"/>
      <point x="120" y="63" type="line"/>
      <point x="114" y="259" type="line"/>
      <point x="203" y="256" type="line" smooth="yes"/>
      <point x="235" y="255"/>
      <point x="240" y="279"/>
      <point x="240" y="299" type="curve" smooth="yes"/>
      <point x="241" y="540" type="line"/>
      <point x="241" y="540"/>
      <point x="202" y="582"/>
      <point x="202" y="582" type="curve"/>
      <point x="84" y="582" type="line"/>
      <point x="48" y="540" type="line"/>
      <point x="45" y="45" type="line"/>
      <point x="45" y="45"/>
      <point x="83" y="0"/>
      <point x="83" y="0" type="curve"/>
      <point x="229" y="0" type="line"/>
    </contour>
    <contour>
      <point x="106" y="516" type="line"/>
      <point x="111" y="524" type="line"/>
      <point x="170" y="522" type="line"/>
      <point x="179" y="521"/>
      <point x="179" y="519"/>
      <point x="179" y="516" type="curve" smooth="yes"/>
      <point x="175" y="320" type="line"/>
      <point x="170" y="314" type="line"/>
      <point x="116" y="308" type="line"/>
    </contour>
    <contour>
      <point x="148" y="582" type="move" name="top"/>
    </contour>
    <contour>
      <point x="88" y="0" type="move" name="bottom"/>
    </contour>
  </outline>
</glyph>
<glyph name="f_i.alt" format="1">
  <advance width="362"/>
  <outline>
    <contour>
      <point x="238" y="0" type="line"/>
      <point x="317" y="0" type="line"/>
      <point x="301" y="582" type="line"/>
      <point x="108" y="583" type="line"/>
      <point x="108" y="637" type="line" smooth="yes"/>
      <point x="108" y="642"/>
      <point x="110" y="646"/>
      <point x="114" y="646" type="curve" smooth="yes"/>
      <point x="197" y="655" type="line"/>
      <point x="197" y="710" type="line"/>
      <point x="85" y="710" type="line"/>
      <point x="42" y="661" type="line"/>
      <point x="43" y="583" type="line"/>
      <point x="3" y="565" type="line"/>
      <point x="3" y="522" type="line"/>
      <point x="44" y="522" type="line"/>
      <point x="52" y="-56" type="line" smooth="yes"/>
      <point x="52" y="-61"/>
      <point x="50" y="-65"/>
      <point x="46" y="-65" type="curve" smooth="yes"/>
      <point x="-57" y="-74" type="line"/>
      <point x="-57" y="-129" type="line"/>
      <point x="81" y="-129" type="line"/>
      <point x="124" y="-80" type="line"/>
      <point x="109" y="522" type="line"/>
      <point x="238" y="522" type="line"/>
    </contour>
    <contour>
      <point x="312" y="707" type="line"/>
      <point x="297" y="721" type="line"/>
      <point x="244" y="721" type="line"/>
      <point x="227" y="701" type="line"/>
      <point x="229" y="661" type="line"/>
      <point x="248" y="646" type="line"/>
      <point x="300" y="646" type="line"/>
      <point x="312" y="671" type="line"/>
    </contour>
  </outline>
</glyph>
<glyph name="g.alt" format="1">
  <advance width="291"/>
  <outline>
    <contour>
      <point x="282" y="582" type="line"/>
      <point x="282" y="542" type="line"/>
      <point x="234" y="528" type="line"/>
      <point x="239" y="194" type="line" smooth="yes"/>
      <point x="239" y="171"/>
      <point x="233" y="148"/>
      <point x="202" y="148" type="curve" smooth="yes"/>
      <point x="135" y="148" type="line" smooth="yes"/>
      <point x="124" y="148"/>
      <point x="118" y="146"/>
      <point x="118" y="135" type="curve" smooth="yes"/>
      <point x="118" y="82" type="line"/>
      <point x="227" y="82" type="line" smooth="yes"/>
      <point x="261" y="82"/>
      <point x="269" y="56"/>
      <point x="269" y="39" type="curve" smooth="yes"/>
      <point x="266" y="-80" type="line" smooth="yes"/>
      <point x="265" y="-113"/>
      <point x="242" y="-129"/>
      <point x="211" y="-129" type="curve" smooth="yes"/>
      <point x="67" y="-129" type="line" smooth="yes"/>
      <point x="36" y="-129"/>
      <point x="14" y="-103"/>
      <point x="14" y="-79" type="curve" smooth="yes"/>
      <point x="24" y="51" type="line" smooth="yes"/>
      <point x="26" y="76"/>
      <point x="57" y="82"/>
      <point x="68" y="82" type="curve"/>
      <point x="68" y="153" type="line"/>
      <point x="68" y="153"/>
      <point x="45" y="158"/>
      <point x="45" y="191" type="curve" smooth="yes"/>
      <point x="46" y="536" type="line" smooth="yes"/>
      <point x="46" y="558"/>
      <point x="72" y="582"/>
      <point x="106" y="582" type="curve" smooth="yes"/>
    </contour>
    <contour>
      <point x="79" y="-60" type="line" smooth="yes"/>
      <point x="79" y="-66"/>
      <point x="81" y="-75"/>
      <point x="89" y="-75" type="curve" smooth="yes"/>
      <point x="192" y="-72" type="line" smooth="yes"/>
      <point x="199" y="-72"/>
      <point x="204" y="-64"/>
      <point x="204" y="-56" type="curve" smooth="yes"/>
      <point x="210" y="10" type="line" smooth="yes"/>
      <point x="210" y="17"/>
      <point x="206" y="23"/>
      <point x="199" y="24" type="curve" smooth="yes"/>
      <point x="88" y="33" type="line" smooth="yes"/>
      <point x="85" y="33"/>
      <point x="80" y="30"/>
      <point x="80" y="26" type="curve" smooth="yes"/>
    </contour>
    <contour>
      <point x="105" y="216" type="line" smooth="yes"/>
      <point x="105" y="210"/>
      <point x="107" y="201"/>
      <point x="115" y="201" type="curve" smooth="yes"/>
      <point x="159" y="203" type="line" smooth="yes"/>
      <point x="166" y="203"/>
      <point x="171" y="211"/>
      <point x="171" y="219" type="curve" smooth="yes"/>
      <point x="180" y="513" type="line" smooth="yes"/>
      <point x="180" y="520"/>
      <point x="176" y="527"/>
      <point x="169" y="527" type="curve" smooth="yes"/>
      <point x="123" y="524" type="line" smooth="yes"/>
      <point x="120" y="524"/>
      <point x="115" y="521"/>
      <point x="115" y="517" type="curve" smooth="yes"/>
    </contour>
    <contour>
      <point x="155" y="582" type="move" name="top"/>
    </contour>
    <contour>
      <point x="165" y="0" type="move" name="bottom"/>
    </contour>
  </outline>
</glyph>
<glyph name="h.alt" format="1">
  <advance width="292"/>
  <outline>
    <contour>
      <point x="112" y="500" type="line"/>
      <point x="117" y="508" type="line"/>
      <point x="176" y="506" type="line" smooth="yes"/>
      <point x="183" y="506"/>
      <point x="185" y="503"/>
      <point x="185" y="500" type="curve" smooth="yes"/>
      <point x="179" y="0" type="line"/>
      <point x="258" y="0" type="line"/>
      <point x="247" y="535" type="line" smooth="yes"/>
      <point x="246" y="562"/>
      <point x="218" y="582"/>
      <point x="181" y="582" type="curve"/>
      <point x="181" y="582"/>
      <point x="108" y="567"/>
      <point x="108" y="567" type="curve"/>
      <point x="108" y="567"/>
      <point x="108" y="710"/>
      <point x="108" y="710" type="curve"/>
      <point x="108" y="710"/>
      <point x="30" y="710"/>
      <point x="30" y="710" type="curve"/>
      <point x="30" y="678" type="line"/>
      <point x="48" y="647" type="line"/>
      <point x="45" y="0" type="line"/>
      <point x="93" y="0" type="line"/>
      <point x="116" y="12" type="line"/>
    </contour>
    <contour>
      <point x="149" y="582" type="move" name="top"/>
    </contour>
    <contour>
      <point x="151" y="0" type="move" name="bottom"/>
    </contour>
  </outline>
</glyph>
<glyph name="horncomb.case" format="1">
  <advance width="110"/>
  <outline>
    <contour>
      <point x="0" y="538" type="line"/>
      <point x="48" y="538" type="line"/>
      <point x="73" y="559" type="line"/>
      <point x="110" y="670" type="line"/>
      <point x="53" y="680" type="line"/>
      <point x="29" y="582" type="line"/>
      <point x="0" y="582" type="line"/>
    </contour>
    <contour>
      <point x="0" y="582" type="move" name="_topright"/>
    </contour>
    <contour>
      <point x="0" y="710" type="move" name="topright"/>
    </contour>
  </outline>
</glyph>
<glyph name="i.alt" format="1">
  <advance width="167"/>
  <outline>
    <contour>
      <point x="50" y="0" type="line"/>
      <point x="129" y="0" type="line"/>
      <point x="113" y="582" type="line"/>
      <point x="50" y="582" type="line"/>
    </contour>
    <contour>
      <point x="124" y="707" type="line"/>
      <point x="109" y="721" type="line"/>
      <point x="56" y="721" type="line"/>
      <point x="39" y="701" type="line"/>
      <point x="41" y="661" type="line"/>
      <point x="60" y="646" type="line"/>
      <point x="112" y="646" type="line"/>
      <point x="124" y="671" type="line"/>
    </contour>
  </outline>
</glyph>
<glyph name="idotless.alt" format="1">
  <advance width="167"/>
  <outline>
    <contour>
      <point x="50" y="0" type="line"/>
      <point x="129" y="0" type="line"/>
      <point x="113" y="582" type="line"/>
      <point x="50" y="582" type="line"/>
    </contour>
    <contour>
      <point x="91" y="0" type="move" name="bottom"/>
    </contour>
    <contour>
      <point x="120" y="0" type="move" name="ogonek"/>
    </contour>
    <contour>
      <point x="81" y="582" type="move" name="top"/>
    </contour>
  </outline>
</glyph>
<glyph name="j.alt" format="1">
  <advance width="167"/>
  <outline>
    <contour>
      <point x="-57" y="-129" type="line"/>
      <point x="81" y="-129" type="line"/>
      <point x="124" y="-80" type="line"/>
      <point x="113" y="582" type="line"/>
      <point x="39" y="582" type="line"/>
      <point x="39" y="541" type="line"/>
      <point x="52" y="516" type="line"/>
      <point x="52" y="-56" type="line" smooth="yes"/>
      <point x="52" y="-61"/>
      <point x="50" y="-65"/>
      <point x="46" y="-65" type="curve" smooth="yes"/>
      <point x="-57" y="-74" type="line"/>
    </contour>
    <contour>
      <point x="40" y="675" type="line"/>
      <point x="47" y="644" type="line"/>
      <point x="85" y="644" type="line"/>
      <point x="119" y="654" type="line"/>
      <point x="121" y="710" type="line"/>
      <point x="113" y="721" type="line"/>
      <point x="50" y="721" type="line"/>
      <point x="40" y="710" type="line"/>
    </contour>
  </outline>
</glyph>
<glyph name="l.alt" format="1">
  <advance width="160"/>
  <outline>
    <contour>
      <point x="49" y="-25" type="line"/>
      <point x="143" y="-25" type="line"/>
      <point x="144" y="20" type="line"/>
      <point x="111" y="33" type="line"/>
      <point x="119" y="721" type="line"/>
      <point x="45" y="721" type="line"/>
    </contour>
    <contour>
      <point x="79" y="710" type="move" name="top"/>
    </contour>
    <contour>
      <point x="96" y="0" type="move" name="bottom"/>
    </contour>
  </outline>
</glyph>
<glyph name="lslash.alt" format="1">
  <advance width="209"/>
  <outline>
    <contour>
      <point x="27" y="277" type="line"/>
      <point x="214" y="409" type="line"/>
      <point x="185" y="453" type="line"/>
      <point x="-7" y="325" type="line"/>
    </contour>
    <component base="l.alt" xOffset="22"/>
  </outline>
</glyph>
<glyph name="nine.ss01" format="1">
  <advance width="339"/>
  <outline>
    <contour>
      <point x="75" y="0" type="line"/>
      <point x="218" y="0" type="line" smooth="yes"/>
      <point x="250" y="0"/>
      <point x="291" y="8"/>
      <point x="291" y="57" type="curve" smooth="yes"/>
      <point x="290" y="663" type="line" smooth="yes"/>
      <point x="290" y="696"/>
      <point x="271" y="710"/>
      <point x="250" y="710" type="curve"/>
      <point x="89" y="710" type="line"/>
      <point x="68" y="710"/>
      <point x="49" y="696"/>
      <point x="49" y="663" type="curve" smooth="yes"/>
      <point x="49" y="374" type="line"/>
      <point x="49" y="339"/>
      <point x="67" y="327"/>
      <point x="111" y="321" type="curve" smooth="yes"/>
      <point x="216" y="306" type="line"/>
      <point x="219" y="79" type="line"/>
      <point x="75" y="55" type="line"/>
    </contour>
    <contour>
      <point x="218" y="377" type="line"/>
      <point x="128" y="395" type="line"/>
      <point x="120" y="402" type="line"/>
      <point x="120" y="631" type="line"/>
      <point x="128" y="641" type="line"/>
      <point x="212" y="645" type="line"/>
      <point x="220" y="637" type="line"/>
    </contour>
  </outline>
</glyph>
<glyph name="one.ss01" format="1">
  <advance width="339"/>
  <outline>
    <contour>
      <point x="37" y="0" type="line"/>
      <point x="312" y="0" type="line"/>
      <point x="312" y="35" type="line"/>
      <point x="291" y="67" type="line"/>
      <point x="223" y="67" type="line"/>
      <point x="223" y="710" type="line"/>
      <point x="53" y="687" type="line"/>
      <point x="53" y="625" type="line"/>
      <point x="148" y="625" type="line"/>
      <point x="141" y="67" type="line"/>
      <point x="37" y="67" type="line"/>
    </contour>
  </outline>
</glyph>
<glyph name="p.alt" format="1">
  <advance width="296"/>
  <outline>
    <contour>
      <point x="44" y="-128" type="line"/>
      <point x="118" y="-128" type="line"/>
      <point x="116" y="0" type="line"/>
      <point x="209" y="0" type="line" smooth="yes"/>
      <point x="233" y="0"/>
      <point x="251" y="19"/>
      <point x="251" y="54" type="curve" smooth="yes"/>
      <point x="249" y="546" type="line" smooth="yes"/>
      <point x="249" y="570"/>
      <point x="238" y="582"/>
      <point x="198" y="582" type="curve" smooth="yes"/>
      <point x="32" y="582" type="line"/>
      <point x="32" y="544" type="line"/>
      <point x="50" y="526" type="line"/>
    </contour>
    <contour>
      <point x="127" y="62" type="line" smooth="yes"/>
      <point x="122" y="62"/>
      <point x="118" y="65"/>
      <point x="118" y="71" type="curve" smooth="yes"/>
      <point x="118" y="513" type="line" smooth="yes"/>
      <point x="118" y="517"/>
      <point x="118" y="519"/>
      <point x="127" y="519" type="curve" smooth="yes"/>
      <point x="169" y="519" type="line" smooth="yes"/>
      <point x="178" y="519"/>
      <point x="178" y="517"/>
      <point x="178" y="513" type="curve"/>
      <point x="188" y="71" type="line"/>
      <point x="188" y="65"/>
      <point x="188" y="62"/>
      <point x="179" y="62" type="curve" smooth="yes"/>
    </contour>
  </outline>
</glyph>
<glyph name="q.alt" format="1">
  <advance width="301"/>
  <outline>
    <contour>
      <point x="179" y="-129" type="line"/>
      <point x="251" y="-129" type="line"/>
      <point x="245" y="520" type="line"/>
      <point x="273" y="540" type="line"/>
      <point x="273" y="582" type="line"/>
      <point x="98" y="582" type="line" smooth="yes"/>
      <point x="71" y="582"/>
      <point x="47" y="563"/>
      <point x="47" y="534" type="curve" smooth="yes"/>
      <point x="45" y="54" type="line"/>
      <point x="87" y="0" type="line"/>
      <point x="180" y="0" type="line"/>
    </contour>
    <contour>
      <point x="127" y="62" type="line" smooth="yes"/>
      <point x="118" y="62"/>
      <point x="118" y="64"/>
      <point x="118" y="68" type="curve" smooth="yes"/>
      <point x="108" y="510" type="line"/>
      <point x="108" y="516"/>
      <point x="108" y="519"/>
      <point x="117" y="519" type="curve" smooth="yes"/>
      <point x="169" y="519" type="line" smooth="yes"/>
      <point x="174" y="519"/>
      <point x="178" y="516"/>
      <point x="178" y="510" type="curve" smooth="yes"/>
      <point x="178" y="68" type="line" smooth="yes"/>
      <point x="178" y="64"/>
      <point x="178" y="62"/>
      <point x="169" y="62" type="curve" smooth="yes"/>
    </contour>
  </outline>
</glyph>
<glyph name="quotesingle.loclGUA" format="1">
  <advance width="143"/>
  <outline>
    <contour>
      <point x="113" y="723" type="line"/>
      <point x="30" y="710" type="line"/>
      <point x="50" y="595" type="line"/>
      <point x="37" y="462" type="line"/>
      <point x="89" y="462" type="line"/>
    </contour>
  </outline>
</glyph>
<glyph name="r.alt" format="1">
  <advance width="235"/>
  <outline>
    <contour>
      <point x="104" y="523" type="line"/>
      <point x="159" y="522" type="line"/>
      <point x="168" y="522"/>
      <point x="177" y="440"/>
      <point x="177" y="434" type="curve"/>
      <point x="220" y="434" type="line"/>
      <point x="218" y="582" type="line"/>
      <point x="30" y="582" type="line"/>
      <point x="30" y="534" type="line"/>
      <point x="51" y="522" type="line"/>
      <point x="51" y="0" type="line"/>
      <point x="117" y="0" type="line"/>
    </contour>
    <contour>
      <point x="127" y="582" type="move" name="top"/>
    </contour>
    <contour>
      <point x="82" y="0" type="move" name="bottom"/>
    </contour>
  </outline>
</glyph>
<glyph name="ringcomb.case" format="1">
  <advance width="139"/>
  <outline>
    <contour>
      <point x="107" y="627" type="line"/>
      <point x="139" y="658" type="line"/>
      <point x="139" y="746" type="line"/>
      <point x="20" y="750" type="line"/>
      <point x="0" y="721" type="line"/>
      <point x="7" y="638" type="line"/>
    </contour>
    <contour>
      <point x="53" y="667" type="line" smooth="yes"/>
      <point x="49" y="667"/>
      <point x="47" y="668"/>
      <point x="47" y="671" type="curve" smooth="yes"/>
      <point x="47" y="703" type="line" smooth="yes"/>
      <point x="47" y="708"/>
      <point x="52" y="712"/>
      <point x="58" y="712" type="curve" smooth="yes"/>
      <point x="98" y="715" type="line"/>
      <point x="98" y="673" type="line" smooth="yes"/>
      <point x="98" y="669"/>
      <point x="96" y="667"/>
      <point x="91" y="667" type="curve"/>
    </contour>
    <contour>
      <point x="70" y="582" type="move" name="_top"/>
    </contour>
    <contour>
      <point x="70" y="762" type="move" name="top"/>
    </contour>
  </outline>
</glyph>
<glyph name="seven.ss01" format="1">
  <advance width="339"/>
  <outline>
    <contour>
      <point x="83" y="0" type="line"/>
      <point x="162" y="0" type="line"/>
      <point x="227" y="340" type="line"/>
      <point x="288" y="340" type="line"/>
      <point x="288" y="390" type="line"/>
      <point x="239" y="403" type="line"/>
      <point x="290" y="665" type="line"/>
      <point x="290" y="710" type="line"/>
      <point x="51" y="710" type="line"/>
      <point x="51" y="677" type="line"/>
      <point x="74" y="643" type="line"/>
      <point x="212" y="643" type="line"/>
      <point x="164" y="408" type="line"/>
      <point x="65" y="408" type="line"/>
      <point x="65" y="340" type="line"/>
      <point x="151" y="340" type="line"/>
    </contour>
  </outline>
</glyph>
<glyph name="six.ss01" format="1">
  <advance width="339"/>
  <outline>
    <contour>
      <point x="90" y="0" type="curve"/>
      <point x="251" y="0" type="line" smooth="yes"/>
      <point x="272" y="0"/>
      <point x="291" y="14"/>
      <point x="291" y="47" type="curve" smooth="yes"/>
      <point x="291" y="336" type="line" smooth="yes"/>
      <point x="291" y="371"/>
      <point x="272" y="381"/>
      <point x="229" y="389" type="curve" smooth="yes"/>
      <point x="124" y="409" type="line"/>
      <point x="117" y="642" type="line"/>
      <point x="266" y="642" type="line"/>
      <point x="266" y="673" type="line"/>
      <point x="241" y="710" type="line"/>
      <point x="122" y="710" type="line" smooth="yes"/>
      <point x="90" y="710"/>
      <point x="49" y="702"/>
      <point x="49" y="653" type="curve" smooth="yes"/>
      <point x="50" y="47" type="line" smooth="yes"/>
      <point x="50" y="14"/>
      <point x="69" y="0"/>
    </contour>
    <contour>
      <point x="212" y="69" type="line"/>
      <point x="127" y="74" type="line"/>
      <point x="119" y="82" type="line"/>
      <point x="119" y="334" type="line"/>
      <point x="212" y="308" type="line"/>
      <point x="220" y="301" type="line"/>
      <point x="220" y="79" type="line"/>
    </contour>
  </outline>
</glyph>
<glyph name="three.ss01" format="1">
  <advance width="339"/>
  <outline>
    <contour>
      <point x="54" y="0" type="line"/>
      <point x="211" y="0" type="line" smooth="yes"/>
      <point x="246" y="0"/>
      <point x="285" y="24"/>
      <point x="284" y="69" type="curve" smooth="yes"/>
      <point x="284" y="334" type="line"/>
      <point x="158" y="382" type="line"/>
      <point x="281" y="441" type="line"/>
      <point x="281" y="655" type="line" smooth="yes"/>
      <point x="281" y="680"/>
      <point x="251" y="710"/>
      <point x="213" y="710" type="curve" smooth="yes"/>
      <point x="62" y="710" type="line"/>
      <point x="62" y="659" type="line"/>
      <point x="210" y="631" type="line"/>
      <point x="200" y="476" type="line"/>
      <point x="84" y="408" type="line"/>
      <point x="84" y="346" type="line"/>
      <point x="199" y="291" type="line"/>
      <point x="211" y="69" type="line"/>
      <point x="81" y="69" type="line"/>
      <point x="54" y="37" type="line"/>
    </contour>
  </outline>
</glyph>
<glyph name="two.ss01" format="1">
  <advance width="339"/>
  <outline>
    <contour>
      <point x="66" y="0" type="curve"/>
      <point x="295" y="0" type="line"/>
      <point x="295" y="68" type="line"/>
      <point x="134" y="68" type="line"/>
      <point x="156" y="306" type="line"/>
      <point x="274" y="398" type="line"/>
      <point x="274" y="663" type="line" smooth="yes"/>
      <point x="274" y="696"/>
      <point x="255" y="710"/>
      <point x="234" y="710" type="curve" smooth="yes"/>
      <point x="66" y="710" type="line"/>
      <point x="66" y="661" type="line"/>
      <point x="202" y="630" type="line"/>
      <point x="190" y="434" type="line"/>
      <point x="66" y="332" type="line"/>
      <point x="66" y="332"/>
      <point x="66" y="0"/>
    </contour>
  </outline>
</glyph>
<glyph name="uni01F1.alt" format="1">
  <advance width="602"/>
  <outline>
    <contour>
      <point x="275" y="678" type="line"/>
      <point x="198" y="710" type="line"/>
      <point x="33" y="710" type="line"/>
      <point x="54" y="84" type="line"/>
      <point x="48" y="56" type="line"/>
      <point x="48" y="0" type="line"/>
      <point x="216" y="0" type="line" smooth="yes"/>
      <point x="225" y="0"/>
      <point x="275" y="4"/>
      <point x="275" y="56" type="curve" smooth="yes"/>
    </contour>
    <contour>
      <point x="582" y="47" type="line"/>
      <point x="582" y="0" type="line"/>
      <point x="358" y="0" type="line"/>
      <point x="340" y="33" type="line"/>
      <point x="484" y="662" type="line"/>
      <point x="356" y="646" type="line"/>
      <point x="356" y="710" type="line"/>
      <point x="562" y="710" type="line"/>
      <point x="448" y="56" type="line"/>
    </contour>
    <contour>
      <point x="160" y="69" type="curve"/>
      <point x="128" y="69" type="line" smooth="yes"/>
      <point x="122" y="69"/>
      <point x="119" y="72"/>
      <point x="119" y="78" type="curve" smooth="yes"/>
      <point x="119" y="638" type="line" smooth="yes"/>
      <point x="119" y="644"/>
      <point x="122" y="647"/>
      <point x="128" y="647" type="curve" smooth="yes"/>
      <point x="204" y="647" type="line" smooth="yes"/>
      <point x="211" y="647"/>
      <point x="213" y="646"/>
      <point x="213" y="638" type="curve" smooth="yes"/>
      <point x="193" y="131" type="line"/>
      <point x="190" y="76"/>
      <point x="177" y="69"/>
    </contour>
  </outline>
</glyph>
<glyph name="uni0259.alt" format="1">
  <advance width="281"/>
  <outline>
    <contour>
      <point x="52" y="525" type="line"/>
      <point x="149" y="525" type="line"/>
      <point x="161" y="519" type="line"/>
      <point x="167" y="317" type="line"/>
      <point x="78" y="320" type="line" smooth="yes"/>
      <point x="46" y="321"/>
      <point x="41" y="297"/>
      <point x="41" y="277" type="curve" smooth="yes"/>
      <point x="40" y="42" type="line"/>
      <point x="40" y="42"/>
      <point x="79" y="0"/>
      <point x="79" y="0" type="curve"/>
      <point x="197" y="0" type="line"/>
      <point x="233" y="42" type="line"/>
      <point x="236" y="537" type="line"/>
      <point x="236" y="537"/>
      <point x="198" y="582"/>
      <point x="198" y="582" type="curve"/>
      <point x="52" y="582" type="line"/>
    </contour>
    <contour>
      <point x="175" y="66" type="line"/>
      <point x="170" y="58" type="line"/>
      <point x="111" y="60" type="line"/>
      <point x="102" y="61"/>
      <point x="102" y="63"/>
      <point x="102" y="66" type="curve" smooth="yes"/>
      <point x="106" y="256" type="line"/>
      <point x="111" y="262" type="line"/>
      <point x="165" y="268" type="line"/>
    </contour>
  </outline>
</glyph>
<glyph name="v.alt" format="1">
  <advance width="244"/>
  <outline>
    <contour>
      <point x="12" y="582" type="line"/>
      <point x="65" y="0" type="line"/>
      <point x="157" y="0" type="line"/>
      <point x="234" y="582" type="line"/>
      <point x="167" y="582" type="line"/>
      <point x="121" y="56" type="line"/>
      <point x="117" y="56" type="line"/>
      <point x="81" y="582" type="line"/>
    </contour>
  </outline>
</glyph>
<glyph name="yloclGUA.alt" format="1">
  <advance width="292"/>
  <outline>
    <contour>
      <point x="45" y="-129" type="line"/>
      <point x="225" y="-129" type="line"/>
      <point x="244" y="79" type="line"/>
      <point x="247" y="582" type="line"/>
      <point x="176" y="582" type="line"/>
      <point x="180" y="86" type="line"/>
      <point x="175" y="78" type="line"/>
      <point x="116" y="80" type="line"/>
      <point x="107" y="81"/>
      <point x="107" y="83"/>
      <point x="107" y="86" type="curve" smooth="yes"/>
      <point x="113" y="582" type="line"/>
      <point x="46" y="582" type="line"/>
      <point x="38" y="67" type="line" smooth="yes"/>
      <point x="38" y="40"/>
      <point x="67" y="20"/>
      <point x="104" y="20" type="curve" smooth="yes"/>
      <point x="176" y="20" type="line"/>
      <point x="176" y="-70" type="line"/>
      <point x="45" y="-70" type="line"/>
    </contour>
    <contour>
      <point x="146" y="582" type="move" name="top"/>
    </contour>
    <contour>
      <point x="144" y="0" type="move" name="bottom"/>
    </contour>
  </outline>
</glyph>
<glyph name="zero.ss01" format="1">
  <advance width="339"/>
  <outline>
    <contour>
      <point x="101" y="0" type="curve" smooth="yes"/>
      <point x="252" y="0" type="line" smooth="yes"/>
      <point x="274" y="0"/>
      <point x="291" y="17"/>
      <point x="291" y="41" type="curve" smooth="yes"/>
      <point x="290" y="650" type="line" smooth="yes"/>
      <point x="290" y="667"/>
      <point x="271" y="710"/>
      <point x="236" y="710" type="curve" smooth="yes"/>
      <point x="105" y="710" type="line" smooth="yes"/>
      <point x="73" y="710"/>
      <point x="51" y="690"/>
      <point x="51" y="663" type="curve" smooth="yes"/>
      <point x="48" y="44" type="line" smooth="yes"/>
      <point x="48" y="14"/>
      <point x="68" y="0"/>
    </contour>
    <contour>
      <point x="126" y="66" type="line"/>
      <point x="126" y="66"/>
      <point x="122" y="70"/>
      <point x="122" y="70" type="curve"/>
      <point x="116" y="641" type="line"/>
      <point x="116" y="641"/>
      <point x="120" y="647"/>
      <point x="120" y="647" type="curve"/>
      <point x="203" y="647" type="line" smooth="yes"/>
      <point x="213" y="647"/>
      <point x="220" y="640"/>
      <point x="220" y="633" type="curve" smooth="yes"/>
      <point x="220" y="74" type="line"/>
      <point x="220" y="74"/>
      <point x="216" y="68"/>
      <point x="216" y="68" type="curve"/>
    </contour>
    <contour>
      <point x="144" y="321" type="line"/>
      <point x="199" y="321" type="line"/>
      <point x="208" y="400" type="line"/>
      <point x="136" y="411" type="line"/>
    </contour>
  </outline>
</glyph>
